<svg width="532" height="127" viewBox="0 0 532 127" fill="none" xmlns="http://www.w3.org/2000/svg">
<path d="M531.833 14C531.833 21.3638 525.864 27.3333 518.5 27.3333C511.136 27.3333 505.167 21.3638 505.167 14C505.167 6.6362 511.136 0.666667 518.5 0.666667C525.864 0.666667 531.833 6.6362 531.833 14ZM13 17.5H10.5C10.5 16.126 11.6088 15.0096 12.9827 15.0001L13 17.5ZM13 55L10.5004 55.0431C10.5001 55.0287 10.5 55.0144 10.5 55H13ZM27.3333 113C27.3333 120.364 21.3638 126.333 14 126.333C6.6362 126.333 0.666687 120.364 0.666687 113C0.666687 105.636 6.6362 99.6667 14 99.6667C21.3638 99.6667 27.3333 105.636 27.3333 113ZM514.568 16.5273C513.187 16.5368 512.06 15.4253 512.051 14.0447C512.041 12.664 513.153 11.537 514.533 11.5274L514.551 14.0273L514.568 16.5273ZM506.635 11.5821C508.016 11.5725 509.143 12.684 509.152 14.0647C509.162 15.4454 508.05 16.5724 506.67 16.582L506.652 14.082L506.635 11.5821ZM498.771 16.6367C497.391 16.6462 496.264 15.5347 496.254 14.154C496.244 12.7733 497.356 11.6463 498.737 11.6368L498.754 14.1367L498.771 16.6367ZM490.838 11.6915C492.219 11.6819 493.346 12.7934 493.355 14.1741C493.365 15.5548 492.253 16.6818 490.873 16.6913L490.855 14.1914L490.838 11.6915ZM482.974 16.746C481.594 16.7556 480.467 15.6441 480.457 14.2634C480.448 12.8827 481.559 11.7557 482.94 11.7462L482.957 14.2461L482.974 16.746ZM475.041 11.8008C476.422 11.7913 477.549 12.9028 477.559 14.2835C477.568 15.6642 476.457 16.7912 475.076 16.8007L475.059 14.3008L475.041 11.8008ZM467.177 16.8554C465.797 16.865 464.67 15.7535 464.66 14.3728C464.651 12.9921 465.762 11.8651 467.143 11.8555L467.16 14.3555L467.177 16.8554ZM459.244 11.9102C460.625 11.9007 461.752 13.0122 461.762 14.3928C461.771 15.7735 460.66 16.9005 459.279 16.9101L459.262 14.4102L459.244 11.9102ZM451.381 16.9648C450 16.9743 448.873 15.8628 448.863 14.4822C448.854 13.1015 449.965 11.9745 451.346 11.9649L451.363 14.4648L451.381 16.9648ZM443.448 12.0196C444.828 12.01 445.955 13.1215 445.965 14.5022C445.974 15.8829 444.863 17.0099 443.482 17.0195L443.465 14.5195L443.448 12.0196ZM435.584 17.0742C434.203 17.0837 433.076 15.9722 433.066 14.5915C433.057 13.2108 434.168 12.0838 435.549 12.0743L435.566 14.5742L435.584 17.0742ZM427.651 12.129C429.031 12.1194 430.158 13.2309 430.168 14.6116C430.177 15.9923 429.066 17.1193 427.685 17.1288L427.668 14.6289L427.651 12.129ZM419.787 17.1835C418.406 17.1931 417.279 16.0816 417.27 14.7009C417.26 13.3202 418.372 12.1932 419.752 12.1837L419.77 14.6836L419.787 17.1835ZM411.854 12.2383C413.234 12.2288 414.361 13.3403 414.371 14.721C414.381 16.1017 413.269 17.2287 411.888 17.2382L411.871 14.7383L411.854 12.2383ZM403.99 17.2929C402.609 17.3025 401.482 16.191 401.473 14.8103C401.463 13.4296 402.575 12.3026 403.955 12.293L403.973 14.793L403.99 17.2929ZM396.057 12.3477C397.438 12.3382 398.565 13.4497 398.574 14.8303C398.584 16.211 397.472 17.338 396.092 17.3476L396.074 14.8477L396.057 12.3477ZM388.193 17.4023C386.812 17.4118 385.685 16.3003 385.676 14.9197C385.666 13.539 386.778 12.412 388.158 12.4024L388.176 14.9023L388.193 17.4023ZM380.26 12.4571C381.641 12.4475 382.768 13.559 382.777 14.9397C382.787 16.3204 381.675 17.4474 380.295 17.457L380.277 14.957L380.26 12.4571ZM372.396 17.5117C371.016 17.5212 369.889 16.4097 369.879 15.029C369.869 13.6483 370.981 12.5213 372.362 12.5118L372.379 15.0117L372.396 17.5117ZM364.463 12.5665C365.844 12.5569 366.971 13.6684 366.98 15.0491C366.99 16.4298 365.878 17.5568 364.498 17.5663L364.48 15.0664L364.463 12.5665ZM356.599 17.621C355.219 17.6306 354.092 16.5191 354.082 15.1384C354.073 13.7577 355.184 12.6307 356.565 12.6212L356.582 15.1211L356.599 17.621ZM348.666 12.6758C350.047 12.6663 351.174 13.7778 351.184 15.1585C351.193 16.5392 350.082 17.6662 348.701 17.6757L348.684 15.1758L348.666 12.6758ZM340.802 17.7304C339.422 17.74 338.295 16.6285 338.285 15.2478C338.276 13.8671 339.387 12.7401 340.768 12.7305L340.785 15.2305L340.802 17.7304ZM332.869 12.7852C334.25 12.7757 335.377 13.8872 335.387 15.2678C335.396 16.6485 334.285 17.7755 332.904 17.7851L332.887 15.2852L332.869 12.7852ZM325.006 17.8398C323.625 17.8493 322.498 16.7378 322.488 15.3572C322.479 13.9765 323.59 12.8495 324.971 12.8399L324.988 15.3398L325.006 17.8398ZM317.073 12.8946C318.453 12.885 319.58 13.9965 319.59 15.3772C319.599 16.7579 318.488 17.8849 317.107 17.8945L317.09 15.3945L317.073 12.8946ZM309.209 17.9492C307.828 17.9587 306.701 16.8472 306.692 15.4665C306.682 14.0858 307.793 12.9588 309.174 12.9493L309.191 15.4492L309.209 17.9492ZM301.276 13.004C302.656 12.9944 303.783 14.1059 303.793 15.4866C303.803 16.8673 302.691 17.9943 301.31 18.0038L301.293 15.5039L301.276 13.004ZM293.412 18.0585C292.031 18.0681 290.904 16.9566 290.895 15.5759C290.885 14.1952 291.997 13.0682 293.377 13.0587L293.395 15.5586L293.412 18.0585ZM285.479 13.1133C286.86 13.1038 287.987 14.2153 287.996 15.596C288.006 16.9767 286.894 18.1037 285.513 18.1132L285.496 15.6133L285.479 13.1133ZM277.615 18.1679C276.234 18.1775 275.107 17.066 275.098 15.6853C275.088 14.3046 276.2 13.1776 277.58 13.168L277.598 15.668L277.615 18.1679ZM269.682 13.2227C271.063 13.2132 272.19 14.3247 272.199 15.7053C272.209 17.086 271.097 18.213 269.717 18.2226L269.699 15.7227L269.682 13.2227ZM261.818 18.2773C260.438 18.2868 259.31 17.1753 259.301 15.7947C259.291 14.414 260.403 13.287 261.784 13.2774L261.801 15.7773L261.818 18.2773ZM253.885 13.3321C255.266 13.3225 256.393 14.434 256.402 15.8147C256.412 17.1954 255.3 18.3224 253.92 18.332L253.902 15.832L253.885 13.3321ZM246.021 18.3867C244.641 18.3962 243.514 17.2847 243.504 15.904C243.495 14.5233 244.606 13.3963 245.987 13.3868L246.004 15.8867L246.021 18.3867ZM238.088 13.4415C239.469 13.4319 240.596 14.5434 240.605 15.9241C240.615 17.3048 239.504 18.4318 238.123 18.4413L238.106 15.9414L238.088 13.4415ZM230.224 18.496C228.844 18.5056 227.717 17.3941 227.707 16.0134C227.698 14.6327 228.809 13.5057 230.19 13.4962L230.207 15.9961L230.224 18.496ZM222.291 13.5508C223.672 13.5413 224.799 14.6528 224.809 16.0335C224.818 17.4141 223.707 18.5412 222.326 18.5507L222.309 16.0508L222.291 13.5508ZM214.428 18.6054C213.047 18.615 211.92 17.5035 211.91 16.1228C211.901 14.7421 213.012 13.6151 214.393 13.6055L214.41 16.1055L214.428 18.6054ZM206.495 13.6602C207.875 13.6507 209.002 14.7622 209.012 16.1428C209.021 17.5235 207.91 18.6505 206.529 18.6601L206.512 16.1602L206.495 13.6602ZM198.631 18.7148C197.25 18.7243 196.123 17.6128 196.113 16.2322C196.104 14.8515 197.215 13.7245 198.596 13.7149L198.613 16.2148L198.631 18.7148ZM190.698 13.7696C192.078 13.76 193.205 14.8715 193.215 16.2522C193.224 17.6329 192.113 18.7599 190.732 18.7695L190.715 16.2695L190.698 13.7696ZM182.834 18.8242C181.453 18.8337 180.326 17.7222 180.317 16.3415C180.307 14.9608 181.419 13.8338 182.799 13.8243L182.817 16.3242L182.834 18.8242ZM174.901 13.879C176.281 13.8694 177.409 14.9809 177.418 16.3616C177.428 17.7423 176.316 18.8693 174.935 18.8788L174.918 16.3789L174.901 13.879ZM167.037 18.9335C165.656 18.9431 164.529 17.8316 164.52 16.4509C164.51 15.0702 165.622 13.9432 167.002 13.9337L167.02 16.4336L167.037 18.9335ZM159.104 13.9883C160.485 13.9788 161.612 15.0903 161.621 16.471C161.631 17.8516 160.519 18.9787 159.139 18.9882L159.121 16.4883L159.104 13.9883ZM151.24 19.0429C149.859 19.0525 148.732 17.941 148.723 16.5603C148.713 15.1796 149.825 14.0526 151.206 14.043L151.223 16.543L151.24 19.0429ZM143.307 14.0977C144.688 14.0882 145.815 15.1997 145.824 16.5803C145.834 17.961 144.722 19.088 143.342 19.0976L143.324 16.5977L143.307 14.0977ZM135.443 19.1523C134.063 19.1618 132.936 18.0503 132.926 16.6697C132.916 15.289 134.028 14.162 135.409 14.1524L135.426 16.6523L135.443 19.1523ZM127.51 14.2071C128.891 14.1975 130.018 15.309 130.027 16.6897C130.037 18.0704 128.926 19.1974 127.545 19.207L127.528 16.707L127.51 14.2071ZM119.646 19.2617C118.266 19.2712 117.139 18.1597 117.129 16.779C117.12 15.3983 118.231 14.2713 119.612 14.2618L119.629 16.7617L119.646 19.2617ZM111.713 14.3165C113.094 14.3069 114.221 15.4184 114.231 16.7991C114.24 18.1798 113.129 19.3068 111.748 19.3163L111.731 16.8164L111.713 14.3165ZM103.85 19.371C102.469 19.3806 101.342 18.2691 101.332 16.8884C101.323 15.5077 102.434 14.3807 103.815 14.3712L103.832 16.8711L103.85 19.371ZM95.9165 14.4258C97.2972 14.4163 98.4242 15.5278 98.4337 16.9085C98.4433 18.2891 97.3318 19.4162 95.9511 19.4257L95.9338 16.9258L95.9165 14.4258ZM88.0527 19.4804C86.672 19.49 85.545 18.3785 85.5354 16.9978C85.5259 15.6171 86.6374 14.4901 88.0181 14.4805L88.0354 16.9805L88.0527 19.4804ZM80.1196 14.5352C81.5003 14.5257 82.6273 15.6372 82.6369 17.0178C82.6464 18.3985 81.5349 19.5255 80.1542 19.5351L80.1369 17.0352L80.1196 14.5352ZM72.2558 19.5898C70.8752 19.5993 69.7481 18.4878 69.7386 17.1072C69.729 15.7265 70.8405 14.5995 72.2212 14.5899L72.2385 17.0898L72.2558 19.5898ZM64.3228 14.6446C65.7035 14.635 66.8305 15.7465 66.84 17.1272C66.8496 18.5079 65.7381 19.6349 64.3574 19.6445L64.3401 17.1445L64.3228 14.6446ZM56.459 19.6992C55.0783 19.7087 53.9513 18.5972 53.9417 17.2165C53.9322 15.8358 55.0437 14.7088 56.4243 14.6993L56.4417 17.1992L56.459 19.6992ZM48.5259 14.754C49.9066 14.7444 51.0336 15.8559 51.0432 17.2366C51.0527 18.6173 49.9412 19.7443 48.5605 19.7538L48.5432 17.2539L48.5259 14.754ZM40.6621 19.8085C39.2814 19.8181 38.1544 18.7066 38.1448 17.3259C38.1353 15.9452 39.2468 14.8182 40.6275 14.8087L40.6448 17.3086L40.6621 19.8085ZM32.7291 14.8633C34.1097 14.8538 35.2368 15.9653 35.2463 17.346C35.2559 18.7266 34.1443 19.8537 32.7637 19.8632L32.7464 17.3633L32.7291 14.8633ZM24.8652 19.9179C23.4846 19.9275 22.3575 18.816 22.348 17.4353C22.3384 16.0546 23.45 14.9276 24.8306 14.918L24.8479 17.418L24.8652 19.9179ZM16.9322 14.9727C18.3129 14.9632 19.4399 16.0747 19.4494 17.4553C19.459 18.836 18.3475 19.963 16.9668 19.9726L16.9495 17.4727L16.9322 14.9727ZM15.5 22.1875C15.5 23.5682 14.3807 24.6875 13 24.6875C11.6193 24.6875 10.5 23.5682 10.5 22.1875H13H15.5ZM10.5 31.5625C10.5 30.1818 11.6193 29.0625 13 29.0625C14.3807 29.0625 15.5 30.1818 15.5 31.5625H13H10.5ZM15.5 40.9375C15.5 42.3182 14.3807 43.4375 13 43.4375C11.6193 43.4375 10.5 42.3182 10.5 40.9375H13H15.5ZM10.5 50.3125C10.5 48.9318 11.6193 47.8125 13 47.8125C14.3807 47.8125 15.5 48.9318 15.5 50.3125H13H10.5ZM15.5621 58.5819C15.5859 59.9624 14.4861 61.1008 13.1056 61.1246C11.7251 61.1484 10.5867 60.0486 10.5629 58.6681L13.0625 58.625L15.5621 58.5819ZM10.6879 65.9181C10.6641 64.5376 11.7639 63.3992 13.1444 63.3754C14.5249 63.3516 15.6633 64.4514 15.6871 65.8319L13.1875 65.875L10.6879 65.9181ZM15.8121 73.0819C15.8359 74.4624 14.7361 75.6008 13.3556 75.6246C11.9751 75.6484 10.8367 74.5486 10.8129 73.1681L13.3125 73.125L15.8121 73.0819ZM10.9379 80.4181C10.9141 79.0376 12.0139 77.8992 13.3944 77.8754C14.7749 77.8516 15.9133 78.9514 15.9371 80.3319L13.4375 80.375L10.9379 80.4181ZM16.0621 87.5819C16.0859 88.9624 14.9861 90.1008 13.6056 90.1246C12.2251 90.1484 11.0867 89.0486 11.0629 87.6681L13.5625 87.625L16.0621 87.5819ZM11.1879 94.9181C11.1641 93.5376 12.2639 92.3992 13.6444 92.3754C15.0249 92.3516 16.1633 93.4514 16.1871 94.8319L13.6875 94.875L11.1879 94.9181ZM16.3121 102.082C16.3359 103.462 15.2361 104.601 13.8556 104.625C12.4751 104.648 11.3367 103.549 11.3129 102.168L13.8125 102.125L16.3121 102.082ZM11.4379 109.418C11.4141 108.038 12.5139 106.899 13.8944 106.875C15.2749 106.852 16.4133 107.951 16.4371 109.332L13.9375 109.375L11.4379 109.418ZM518.5 14L518.517 16.4999L514.568 16.5273L514.551 14.0273L514.533 11.5274L518.483 11.5001L518.5 14ZM506.652 14.082L506.67 16.582L498.771 16.6367L498.754 14.1367L498.737 11.6368L506.635 11.5821L506.652 14.082ZM490.855 14.1914L490.873 16.6913L482.974 16.746L482.957 14.2461L482.94 11.7462L490.838 11.6915L490.855 14.1914ZM475.059 14.3008L475.076 16.8007L467.177 16.8554L467.16 14.3555L467.143 11.8555L475.041 11.8008L475.059 14.3008ZM459.262 14.4102L459.279 16.9101L451.381 16.9648L451.363 14.4648L451.346 11.9649L459.244 11.9102L459.262 14.4102ZM443.465 14.5195L443.482 17.0195L435.584 17.0742L435.566 14.5742L435.549 12.0743L443.448 12.0196L443.465 14.5195ZM427.668 14.6289L427.685 17.1288L419.787 17.1835L419.77 14.6836L419.752 12.1837L427.651 12.129L427.668 14.6289ZM411.871 14.7383L411.888 17.2382L403.99 17.2929L403.973 14.793L403.955 12.293L411.854 12.2383L411.871 14.7383ZM396.074 14.8477L396.092 17.3476L388.193 17.4023L388.176 14.9023L388.158 12.4024L396.057 12.3477L396.074 14.8477ZM380.277 14.957L380.295 17.457L372.396 17.5117L372.379 15.0117L372.362 12.5118L380.26 12.4571L380.277 14.957ZM364.48 15.0664L364.498 17.5663L356.599 17.621L356.582 15.1211L356.565 12.6212L364.463 12.5665L364.48 15.0664ZM348.684 15.1758L348.701 17.6757L340.802 17.7304L340.785 15.2305L340.768 12.7305L348.666 12.6758L348.684 15.1758ZM332.887 15.2852L332.904 17.7851L325.006 17.8398L324.988 15.3398L324.971 12.8399L332.869 12.7852L332.887 15.2852ZM317.09 15.3945L317.107 17.8945L309.209 17.9492L309.191 15.4492L309.174 12.9493L317.073 12.8946L317.09 15.3945ZM301.293 15.5039L301.31 18.0038L293.412 18.0585L293.395 15.5586L293.377 13.0587L301.276 13.004L301.293 15.5039ZM285.496 15.6133L285.513 18.1132L277.615 18.1679L277.598 15.668L277.58 13.168L285.479 13.1133L285.496 15.6133ZM269.699 15.7227L269.717 18.2226L261.818 18.2773L261.801 15.7773L261.784 13.2774L269.682 13.2227L269.699 15.7227ZM253.902 15.832L253.92 18.332L246.021 18.3867L246.004 15.8867L245.987 13.3868L253.885 13.3321L253.902 15.832ZM238.106 15.9414L238.123 18.4413L230.224 18.496L230.207 15.9961L230.19 13.4962L238.088 13.4415L238.106 15.9414ZM222.309 16.0508L222.326 18.5507L214.428 18.6054L214.41 16.1055L214.393 13.6055L222.291 13.5508L222.309 16.0508ZM206.512 16.1602L206.529 18.6601L198.631 18.7148L198.613 16.2148L198.596 13.7149L206.495 13.6602L206.512 16.1602ZM190.715 16.2695L190.732 18.7695L182.834 18.8242L182.817 16.3242L182.799 13.8243L190.698 13.7696L190.715 16.2695ZM174.918 16.3789L174.935 18.8788L167.037 18.9335L167.02 16.4336L167.002 13.9337L174.901 13.879L174.918 16.3789ZM159.121 16.4883L159.139 18.9882L151.24 19.0429L151.223 16.543L151.206 14.043L159.104 13.9883L159.121 16.4883ZM143.324 16.5977L143.342 19.0976L135.443 19.1523L135.426 16.6523L135.409 14.1524L143.307 14.0977L143.324 16.5977ZM127.528 16.707L127.545 19.207L119.646 19.2617L119.629 16.7617L119.612 14.2618L127.51 14.2071L127.528 16.707ZM111.731 16.8164L111.748 19.3163L103.85 19.371L103.832 16.8711L103.815 14.3712L111.713 14.3165L111.731 16.8164ZM95.9338 16.9258L95.9511 19.4257L88.0527 19.4804L88.0354 16.9805L88.0181 14.4805L95.9165 14.4258L95.9338 16.9258ZM80.1369 17.0352L80.1542 19.5351L72.2558 19.5898L72.2385 17.0898L72.2212 14.5899L80.1196 14.5352L80.1369 17.0352ZM64.3401 17.1445L64.3574 19.6445L56.459 19.6992L56.4417 17.1992L56.4243 14.6993L64.3228 14.6446L64.3401 17.1445ZM48.5432 17.2539L48.5605 19.7538L40.6621 19.8085L40.6448 17.3086L40.6275 14.8087L48.5259 14.754L48.5432 17.2539ZM32.7464 17.3633L32.7637 19.8632L24.8652 19.9179L24.8479 17.418L24.8306 14.918L32.7291 14.8633L32.7464 17.3633ZM16.9495 17.4727L16.9668 19.9726L13.0173 19.9999L13 17.5L12.9827 15.0001L16.9322 14.9727L16.9495 17.4727ZM13 17.5H15.5V22.1875H13H10.5V17.5H13ZM13 31.5625H15.5V40.9375H13H10.5V31.5625H13ZM13 50.3125H15.5V55H13H10.5V50.3125H13ZM13 55L15.4996 54.9569L15.5621 58.5819L13.0625 58.625L10.5629 58.6681L10.5004 55.0431L13 55ZM13.1875 65.875L15.6871 65.8319L15.8121 73.0819L13.3125 73.125L10.8129 73.1681L10.6879 65.9181L13.1875 65.875ZM13.4375 80.375L15.9371 80.3319L16.0621 87.5819L13.5625 87.625L11.0629 87.6681L10.9379 80.4181L13.4375 80.375ZM13.6875 94.875L16.1871 94.8319L16.3121 102.082L13.8125 102.125L11.3129 102.168L11.1879 94.9181L13.6875 94.875ZM13.9375 109.375L16.4371 109.332L16.4996 112.957L14 113L11.5004 113.043L11.4379 109.418L13.9375 109.375ZM531.833 14C531.833 21.3638 525.864 27.3333 518.5 27.3333C511.136 27.3333 505.167 21.3638 505.167 14C505.167 6.6362 511.136 0.666667 518.5 0.666667C525.864 0.666667 531.833 6.6362 531.833 14ZM13 17.5H10.5C10.5 16.126 11.6088 15.0096 12.9827 15.0001L13 17.5ZM13 55L10.5004 55.0431C10.5001 55.0287 10.5 55.0144 10.5 55H13ZM27.3333 113C27.3333 120.364 21.3638 126.333 14 126.333C6.6362 126.333 0.666687 120.364 0.666687 113C0.666687 105.636 6.6362 99.6667 14 99.6667C21.3638 99.6667 27.3333 105.636 27.3333 113ZM514.568 16.5273C513.187 16.5368 512.06 15.4253 512.051 14.0447C512.041 12.664 513.153 11.537 514.533 11.5274L514.551 14.0273L514.568 16.5273ZM506.635 11.5821C508.016 11.5725 509.143 12.684 509.152 14.0647C509.162 15.4454 508.05 16.5724 506.67 16.582L506.652 14.082L506.635 11.5821ZM498.771 16.6367C497.391 16.6462 496.264 15.5347 496.254 14.154C496.244 12.7733 497.356 11.6463 498.737 11.6368L498.754 14.1367L498.771 16.6367ZM490.838 11.6915C492.219 11.6819 493.346 12.7934 493.355 14.1741C493.365 15.5548 492.253 16.6818 490.873 16.6913L490.855 14.1914L490.838 11.6915ZM482.974 16.746C481.594 16.7556 480.467 15.6441 480.457 14.2634C480.448 12.8827 481.559 11.7557 482.94 11.7462L482.957 14.2461L482.974 16.746ZM475.041 11.8008C476.422 11.7913 477.549 12.9028 477.559 14.2835C477.568 15.6642 476.457 16.7912 475.076 16.8007L475.059 14.3008L475.041 11.8008ZM467.177 16.8554C465.797 16.865 464.67 15.7535 464.66 14.3728C464.651 12.9921 465.762 11.8651 467.143 11.8555L467.16 14.3555L467.177 16.8554ZM459.244 11.9102C460.625 11.9007 461.752 13.0122 461.762 14.3928C461.771 15.7735 460.66 16.9005 459.279 16.9101L459.262 14.4102L459.244 11.9102ZM451.381 16.9648C450 16.9743 448.873 15.8628 448.863 14.4822C448.854 13.1015 449.965 11.9745 451.346 11.9649L451.363 14.4648L451.381 16.9648ZM443.448 12.0196C444.828 12.01 445.955 13.1215 445.965 14.5022C445.974 15.8829 444.863 17.0099 443.482 17.0195L443.465 14.5195L443.448 12.0196ZM435.584 17.0742C434.203 17.0837 433.076 15.9722 433.066 14.5915C433.057 13.2108 434.168 12.0838 435.549 12.0743L435.566 14.5742L435.584 17.0742ZM427.651 12.129C429.031 12.1194 430.158 13.2309 430.168 14.6116C430.177 15.9923 429.066 17.1193 427.685 17.1288L427.668 14.6289L427.651 12.129ZM419.787 17.1835C418.406 17.1931 417.279 16.0816 417.27 14.7009C417.26 13.3202 418.372 12.1932 419.752 12.1837L419.77 14.6836L419.787 17.1835ZM411.854 12.2383C413.234 12.2288 414.361 13.3403 414.371 14.721C414.381 16.1017 413.269 17.2287 411.888 17.2382L411.871 14.7383L411.854 12.2383ZM403.99 17.2929C402.609 17.3025 401.482 16.191 401.473 14.8103C401.463 13.4296 402.575 12.3026 403.955 12.293L403.973 14.793L403.99 17.2929ZM396.057 12.3477C397.438 12.3382 398.565 13.4497 398.574 14.8303C398.584 16.211 397.472 17.338 396.092 17.3476L396.074 14.8477L396.057 12.3477ZM388.193 17.4023C386.812 17.4118 385.685 16.3003 385.676 14.9197C385.666 13.539 386.778 12.412 388.158 12.4024L388.176 14.9023L388.193 17.4023ZM380.26 12.4571C381.641 12.4475 382.768 13.559 382.777 14.9397C382.787 16.3204 381.675 17.4474 380.295 17.457L380.277 14.957L380.26 12.4571ZM372.396 17.5117C371.016 17.5212 369.889 16.4097 369.879 15.029C369.869 13.6483 370.981 12.5213 372.362 12.5118L372.379 15.0117L372.396 17.5117ZM364.463 12.5665C365.844 12.5569 366.971 13.6684 366.98 15.0491C366.99 16.4298 365.878 17.5568 364.498 17.5663L364.48 15.0664L364.463 12.5665ZM356.599 17.621C355.219 17.6306 354.092 16.5191 354.082 15.1384C354.073 13.7577 355.184 12.6307 356.565 12.6212L356.582 15.1211L356.599 17.621ZM348.666 12.6758C350.047 12.6663 351.174 13.7778 351.184 15.1585C351.193 16.5392 350.082 17.6662 348.701 17.6757L348.684 15.1758L348.666 12.6758ZM340.802 17.7304C339.422 17.74 338.295 16.6285 338.285 15.2478C338.276 13.8671 339.387 12.7401 340.768 12.7305L340.785 15.2305L340.802 17.7304ZM332.869 12.7852C334.25 12.7757 335.377 13.8872 335.387 15.2678C335.396 16.6485 334.285 17.7755 332.904 17.7851L332.887 15.2852L332.869 12.7852ZM325.006 17.8398C323.625 17.8493 322.498 16.7378 322.488 15.3572C322.479 13.9765 323.59 12.8495 324.971 12.8399L324.988 15.3398L325.006 17.8398ZM317.073 12.8946C318.453 12.885 319.58 13.9965 319.59 15.3772C319.599 16.7579 318.488 17.8849 317.107 17.8945L317.09 15.3945L317.073 12.8946ZM309.209 17.9492C307.828 17.9587 306.701 16.8472 306.692 15.4665C306.682 14.0858 307.793 12.9588 309.174 12.9493L309.191 15.4492L309.209 17.9492ZM301.276 13.004C302.656 12.9944 303.783 14.1059 303.793 15.4866C303.803 16.8673 302.691 17.9943 301.31 18.0038L301.293 15.5039L301.276 13.004ZM293.412 18.0585C292.031 18.0681 290.904 16.9566 290.895 15.5759C290.885 14.1952 291.997 13.0682 293.377 13.0587L293.395 15.5586L293.412 18.0585ZM285.479 13.1133C286.86 13.1038 287.987 14.2153 287.996 15.596C288.006 16.9767 286.894 18.1037 285.513 18.1132L285.496 15.6133L285.479 13.1133ZM277.615 18.1679C276.234 18.1775 275.107 17.066 275.098 15.6853C275.088 14.3046 276.2 13.1776 277.58 13.168L277.598 15.668L277.615 18.1679ZM269.682 13.2227C271.063 13.2132 272.19 14.3247 272.199 15.7053C272.209 17.086 271.097 18.213 269.717 18.2226L269.699 15.7227L269.682 13.2227ZM261.818 18.2773C260.438 18.2868 259.31 17.1753 259.301 15.7947C259.291 14.414 260.403 13.287 261.784 13.2774L261.801 15.7773L261.818 18.2773ZM253.885 13.3321C255.266 13.3225 256.393 14.434 256.402 15.8147C256.412 17.1954 255.3 18.3224 253.92 18.332L253.902 15.832L253.885 13.3321ZM246.021 18.3867C244.641 18.3962 243.514 17.2847 243.504 15.904C243.495 14.5233 244.606 13.3963 245.987 13.3868L246.004 15.8867L246.021 18.3867ZM238.088 13.4415C239.469 13.4319 240.596 14.5434 240.605 15.9241C240.615 17.3048 239.504 18.4318 238.123 18.4413L238.106 15.9414L238.088 13.4415ZM230.224 18.496C228.844 18.5056 227.717 17.3941 227.707 16.0134C227.698 14.6327 228.809 13.5057 230.19 13.4962L230.207 15.9961L230.224 18.496ZM222.291 13.5508C223.672 13.5413 224.799 14.6528 224.809 16.0335C224.818 17.4141 223.707 18.5412 222.326 18.5507L222.309 16.0508L222.291 13.5508ZM214.428 18.6054C213.047 18.615 211.92 17.5035 211.91 16.1228C211.901 14.7421 213.012 13.6151 214.393 13.6055L214.41 16.1055L214.428 18.6054ZM206.495 13.6602C207.875 13.6507 209.002 14.7622 209.012 16.1428C209.021 17.5235 207.91 18.6505 206.529 18.6601L206.512 16.1602L206.495 13.6602ZM198.631 18.7148C197.25 18.7243 196.123 17.6128 196.113 16.2322C196.104 14.8515 197.215 13.7245 198.596 13.7149L198.613 16.2148L198.631 18.7148ZM190.698 13.7696C192.078 13.76 193.205 14.8715 193.215 16.2522C193.224 17.6329 192.113 18.7599 190.732 18.7695L190.715 16.2695L190.698 13.7696ZM182.834 18.8242C181.453 18.8337 180.326 17.7222 180.317 16.3415C180.307 14.9608 181.419 13.8338 182.799 13.8243L182.817 16.3242L182.834 18.8242ZM174.901 13.879C176.281 13.8694 177.409 14.9809 177.418 16.3616C177.428 17.7423 176.316 18.8693 174.935 18.8788L174.918 16.3789L174.901 13.879ZM167.037 18.9335C165.656 18.9431 164.529 17.8316 164.52 16.4509C164.51 15.0702 165.622 13.9432 167.002 13.9337L167.02 16.4336L167.037 18.9335ZM159.104 13.9883C160.485 13.9788 161.612 15.0903 161.621 16.471C161.631 17.8516 160.519 18.9787 159.139 18.9882L159.121 16.4883L159.104 13.9883ZM151.24 19.0429C149.859 19.0525 148.732 17.941 148.723 16.5603C148.713 15.1796 149.825 14.0526 151.206 14.043L151.223 16.543L151.24 19.0429ZM143.307 14.0977C144.688 14.0882 145.815 15.1997 145.824 16.5803C145.834 17.961 144.722 19.088 143.342 19.0976L143.324 16.5977L143.307 14.0977ZM135.443 19.1523C134.063 19.1618 132.936 18.0503 132.926 16.6697C132.916 15.289 134.028 14.162 135.409 14.1524L135.426 16.6523L135.443 19.1523ZM127.51 14.2071C128.891 14.1975 130.018 15.309 130.027 16.6897C130.037 18.0704 128.926 19.1974 127.545 19.207L127.528 16.707L127.51 14.2071ZM119.646 19.2617C118.266 19.2712 117.139 18.1597 117.129 16.779C117.12 15.3983 118.231 14.2713 119.612 14.2618L119.629 16.7617L119.646 19.2617ZM111.713 14.3165C113.094 14.3069 114.221 15.4184 114.231 16.7991C114.24 18.1798 113.129 19.3068 111.748 19.3163L111.731 16.8164L111.713 14.3165ZM103.85 19.371C102.469 19.3806 101.342 18.2691 101.332 16.8884C101.323 15.5077 102.434 14.3807 103.815 14.3712L103.832 16.8711L103.85 19.371ZM95.9165 14.4258C97.2972 14.4163 98.4242 15.5278 98.4337 16.9085C98.4433 18.2891 97.3318 19.4162 95.9511 19.4257L95.9338 16.9258L95.9165 14.4258ZM88.0527 19.4804C86.672 19.49 85.545 18.3785 85.5354 16.9978C85.5259 15.6171 86.6374 14.4901 88.0181 14.4805L88.0354 16.9805L88.0527 19.4804ZM80.1196 14.5352C81.5003 14.5257 82.6273 15.6372 82.6369 17.0178C82.6464 18.3985 81.5349 19.5255 80.1542 19.5351L80.1369 17.0352L80.1196 14.5352ZM72.2558 19.5898C70.8752 19.5993 69.7481 18.4878 69.7386 17.1072C69.729 15.7265 70.8405 14.5995 72.2212 14.5899L72.2385 17.0898L72.2558 19.5898ZM64.3228 14.6446C65.7035 14.635 66.8305 15.7465 66.84 17.1272C66.8496 18.5079 65.7381 19.6349 64.3574 19.6445L64.3401 17.1445L64.3228 14.6446ZM56.459 19.6992C55.0783 19.7087 53.9513 18.5972 53.9417 17.2165C53.9322 15.8358 55.0437 14.7088 56.4243 14.6993L56.4417 17.1992L56.459 19.6992ZM48.5259 14.754C49.9066 14.7444 51.0336 15.8559 51.0432 17.2366C51.0527 18.6173 49.9412 19.7443 48.5605 19.7538L48.5432 17.2539L48.5259 14.754ZM40.6621 19.8085C39.2814 19.8181 38.1544 18.7066 38.1448 17.3259C38.1353 15.9452 39.2468 14.8182 40.6275 14.8087L40.6448 17.3086L40.6621 19.8085ZM32.7291 14.8633C34.1097 14.8538 35.2368 15.9653 35.2463 17.346C35.2559 18.7266 34.1443 19.8537 32.7637 19.8632L32.7464 17.3633L32.7291 14.8633ZM24.8652 19.9179C23.4846 19.9275 22.3575 18.816 22.348 17.4353C22.3384 16.0546 23.45 14.9276 24.8306 14.918L24.8479 17.418L24.8652 19.9179ZM16.9322 14.9727C18.3129 14.9632 19.4399 16.0747 19.4494 17.4553C19.459 18.836 18.3475 19.963 16.9668 19.9726L16.9495 17.4727L16.9322 14.9727ZM15.5 22.1875C15.5 23.5682 14.3807 24.6875 13 24.6875C11.6193 24.6875 10.5 23.5682 10.5 22.1875H13H15.5ZM10.5 31.5625C10.5 30.1818 11.6193 29.0625 13 29.0625C14.3807 29.0625 15.5 30.1818 15.5 31.5625H13H10.5ZM15.5 40.9375C15.5 42.3182 14.3807 43.4375 13 43.4375C11.6193 43.4375 10.5 42.3182 10.5 40.9375H13H15.5ZM10.5 50.3125C10.5 48.9318 11.6193 47.8125 13 47.8125C14.3807 47.8125 15.5 48.9318 15.5 50.3125H13H10.5ZM15.5621 58.5819C15.5859 59.9624 14.4861 61.1008 13.1056 61.1246C11.7251 61.1484 10.5867 60.0486 10.5629 58.6681L13.0625 58.625L15.5621 58.5819ZM10.6879 65.9181C10.6641 64.5376 11.7639 63.3992 13.1444 63.3754C14.5249 63.3516 15.6633 64.4514 15.6871 65.8319L13.1875 65.875L10.6879 65.9181ZM15.8121 73.0819C15.8359 74.4624 14.7361 75.6008 13.3556 75.6246C11.9751 75.6484 10.8367 74.5486 10.8129 73.1681L13.3125 73.125L15.8121 73.0819ZM10.9379 80.4181C10.9141 79.0376 12.0139 77.8992 13.3944 77.8754C14.7749 77.8516 15.9133 78.9514 15.9371 80.3319L13.4375 80.375L10.9379 80.4181ZM16.0621 87.5819C16.0859 88.9624 14.9861 90.1008 13.6056 90.1246C12.2251 90.1484 11.0867 89.0486 11.0629 87.6681L13.5625 87.625L16.0621 87.5819ZM11.1879 94.9181C11.1641 93.5376 12.2639 92.3992 13.6444 92.3754C15.0249 92.3516 16.1633 93.4514 16.1871 94.8319L13.6875 94.875L11.1879 94.9181ZM16.3121 102.082C16.3359 103.462 15.2361 104.601 13.8556 104.625C12.4751 104.648 11.3367 103.549 11.3129 102.168L13.8125 102.125L16.3121 102.082ZM11.4379 109.418C11.4141 108.038 12.5139 106.899 13.8944 106.875C15.2749 106.852 16.4133 107.951 16.4371 109.332L13.9375 109.375L11.4379 109.418ZM518.5 14L518.517 16.4999L514.568 16.5273L514.551 14.0273L514.533 11.5274L518.483 11.5001L518.5 14ZM506.652 14.082L506.67 16.582L498.771 16.6367L498.754 14.1367L498.737 11.6368L506.635 11.5821L506.652 14.082ZM490.855 14.1914L490.873 16.6913L482.974 16.746L482.957 14.2461L482.94 11.7462L490.838 11.6915L490.855 14.1914ZM475.059 14.3008L475.076 16.8007L467.177 16.8554L467.16 14.3555L467.143 11.8555L475.041 11.8008L475.059 14.3008ZM459.262 14.4102L459.279 16.9101L451.381 16.9648L451.363 14.4648L451.346 11.9649L459.244 11.9102L459.262 14.4102ZM443.465 14.5195L443.482 17.0195L435.584 17.0742L435.566 14.5742L435.549 12.0743L443.448 12.0196L443.465 14.5195ZM427.668 14.6289L427.685 17.1288L419.787 17.1835L419.77 14.6836L419.752 12.1837L427.651 12.129L427.668 14.6289ZM411.871 14.7383L411.888 17.2382L403.99 17.2929L403.973 14.793L403.955 12.293L411.854 12.2383L411.871 14.7383ZM396.074 14.8477L396.092 17.3476L388.193 17.4023L388.176 14.9023L388.158 12.4024L396.057 12.3477L396.074 14.8477ZM380.277 14.957L380.295 17.457L372.396 17.5117L372.379 15.0117L372.362 12.5118L380.26 12.4571L380.277 14.957ZM364.48 15.0664L364.498 17.5663L356.599 17.621L356.582 15.1211L356.565 12.6212L364.463 12.5665L364.48 15.0664ZM348.684 15.1758L348.701 17.6757L340.802 17.7304L340.785 15.2305L340.768 12.7305L348.666 12.6758L348.684 15.1758ZM332.887 15.2852L332.904 17.7851L325.006 17.8398L324.988 15.3398L324.971 12.8399L332.869 12.7852L332.887 15.2852ZM317.09 15.3945L317.107 17.8945L309.209 17.9492L309.191 15.4492L309.174 12.9493L317.073 12.8946L317.09 15.3945ZM301.293 15.5039L301.31 18.0038L293.412 18.0585L293.395 15.5586L293.377 13.0587L301.276 13.004L301.293 15.5039ZM285.496 15.6133L285.513 18.1132L277.615 18.1679L277.598 15.668L277.58 13.168L285.479 13.1133L285.496 15.6133ZM269.699 15.7227L269.717 18.2226L261.818 18.2773L261.801 15.7773L261.784 13.2774L269.682 13.2227L269.699 15.7227ZM253.902 15.832L253.92 18.332L246.021 18.3867L246.004 15.8867L245.987 13.3868L253.885 13.3321L253.902 15.832ZM238.106 15.9414L238.123 18.4413L230.224 18.496L230.207 15.9961L230.19 13.4962L238.088 13.4415L238.106 15.9414ZM222.309 16.0508L222.326 18.5507L214.428 18.6054L214.41 16.1055L214.393 13.6055L222.291 13.5508L222.309 16.0508ZM206.512 16.1602L206.529 18.6601L198.631 18.7148L198.613 16.2148L198.596 13.7149L206.495 13.6602L206.512 16.1602ZM190.715 16.2695L190.732 18.7695L182.834 18.8242L182.817 16.3242L182.799 13.8243L190.698 13.7696L190.715 16.2695ZM174.918 16.3789L174.935 18.8788L167.037 18.9335L167.02 16.4336L167.002 13.9337L174.901 13.879L174.918 16.3789ZM159.121 16.4883L159.139 18.9882L151.24 19.0429L151.223 16.543L151.206 14.043L159.104 13.9883L159.121 16.4883ZM143.324 16.5977L143.342 19.0976L135.443 19.1523L135.426 16.6523L135.409 14.1524L143.307 14.0977L143.324 16.5977ZM127.528 16.707L127.545 19.207L119.646 19.2617L119.629 16.7617L119.612 14.2618L127.51 14.2071L127.528 16.707ZM111.731 16.8164L111.748 19.3163L103.85 19.371L103.832 16.8711L103.815 14.3712L111.713 14.3165L111.731 16.8164ZM95.9338 16.9258L95.9511 19.4257L88.0527 19.4804L88.0354 16.9805L88.0181 14.4805L95.9165 14.4258L95.9338 16.9258ZM80.1369 17.0352L80.1542 19.5351L72.2558 19.5898L72.2385 17.0898L72.2212 14.5899L80.1196 14.5352L80.1369 17.0352ZM64.3401 17.1445L64.3574 19.6445L56.459 19.6992L56.4417 17.1992L56.4243 14.6993L64.3228 14.6446L64.3401 17.1445ZM48.5432 17.2539L48.5605 19.7538L40.6621 19.8085L40.6448 17.3086L40.6275 14.8087L48.5259 14.754L48.5432 17.2539ZM32.7464 17.3633L32.7637 19.8632L24.8652 19.9179L24.8479 17.418L24.8306 14.918L32.7291 14.8633L32.7464 17.3633ZM16.9495 17.4727L16.9668 19.9726L13.0173 19.9999L13 17.5L12.9827 15.0001L16.9322 14.9727L16.9495 17.4727ZM13 17.5H15.5V22.1875H13H10.5V17.5H13ZM13 31.5625H15.5V40.9375H13H10.5V31.5625H13ZM13 50.3125H15.5V55H13H10.5V50.3125H13ZM13 55L15.4996 54.9569L15.5621 58.5819L13.0625 58.625L10.5629 58.6681L10.5004 55.0431L13 55ZM13.1875 65.875L15.6871 65.8319L15.8121 73.0819L13.3125 73.125L10.8129 73.1681L10.6879 65.9181L13.1875 65.875ZM13.4375 80.375L15.9371 80.3319L16.0621 87.5819L13.5625 87.625L11.0629 87.6681L10.9379 80.4181L13.4375 80.375ZM13.6875 94.875L16.1871 94.8319L16.3121 102.082L13.8125 102.125L11.3129 102.168L11.1879 94.9181L13.6875 94.875ZM13.9375 109.375L16.4371 109.332L16.4996 112.957L14 113L11.5004 113.043L11.4379 109.418L13.9375 109.375Z" fill="black" fill-opacity="0.8"/>
</svg>
