<svg width="533" height="141" viewBox="0 0 533 141" fill="none" xmlns="http://www.w3.org/2000/svg">
<path d="M0.666667 14C0.666667 21.3638 6.6362 27.3333 14 27.3333C21.3638 27.3333 27.3333 21.3638 27.3333 14C27.3333 6.6362 21.3638 0.666667 14 0.666667C6.6362 0.666667 0.666667 6.6362 0.666667 14ZM519.5 17.5H522C522 16.126 520.891 15.0096 519.517 15.0001L519.5 17.5ZM506.167 127.5C506.167 134.864 512.136 140.833 519.5 140.833C526.864 140.833 532.833 134.864 532.833 127.5C532.833 120.136 526.864 114.167 519.5 114.167C512.136 114.167 506.167 120.136 506.167 127.5ZM17.9319 16.5273C19.3126 16.5368 20.4396 15.4253 20.4492 14.0447C20.4587 12.664 19.3472 11.537 17.9665 11.5274L17.9492 14.0273L17.9319 16.5273ZM25.865 11.5821C24.4843 11.5725 23.3573 12.684 23.3477 14.0647C23.3382 15.4454 24.4497 16.5724 25.8303 16.582L25.8477 14.082L25.865 11.5821ZM33.7288 16.6367C35.1095 16.6462 36.2365 15.5347 36.246 14.154C36.2556 12.7733 35.1441 11.6463 33.7634 11.6368L33.7461 14.1367L33.7288 16.6367ZM41.6618 11.6915C40.2812 11.6819 39.1542 12.7934 39.1446 14.1741C39.135 15.5548 40.2465 16.6818 41.6272 16.6913L41.6445 14.1914L41.6618 11.6915ZM49.5257 16.746C50.9063 16.7556 52.0333 15.6441 52.0429 14.2634C52.0525 12.8827 50.941 11.7557 49.5603 11.7462L49.543 14.2461L49.5257 16.746ZM57.4587 11.8008C56.078 11.7913 54.951 12.9028 54.9415 14.2835C54.9319 15.6642 56.0434 16.7912 57.4241 16.8007L57.4414 14.3008L57.4587 11.8008ZM65.3225 16.8554C66.7032 16.865 67.8302 15.7535 67.8398 14.3728C67.8493 12.9921 66.7378 11.8651 65.3572 11.8555L65.3398 14.3555L65.3225 16.8554ZM73.2556 11.9102C71.8749 11.9007 70.7479 13.0122 70.7383 14.3928C70.7288 15.7735 71.8403 16.9005 73.221 16.9101L73.2383 14.4102L73.2556 11.9102ZM81.1194 16.9648C82.5001 16.9743 83.6271 15.8628 83.6367 14.4822C83.6462 13.1015 82.5347 11.9745 81.154 11.9649L81.1367 14.4648L81.1194 16.9648ZM89.0525 12.0196C87.6718 12.01 86.5448 13.1215 86.5352 14.5022C86.5257 15.8829 87.6372 17.0099 89.0178 17.0195L89.0352 14.5195L89.0525 12.0196ZM96.9163 17.0742C98.297 17.0837 99.424 15.9722 99.4335 14.5915C99.4431 13.2108 98.3316 12.0838 96.9509 12.0743L96.9336 14.5742L96.9163 17.0742ZM104.849 12.129C103.469 12.1194 102.342 13.2309 102.332 14.6116C102.323 15.9923 103.434 17.1193 104.815 17.1288L104.832 14.6289L104.849 12.129ZM112.713 17.1835C114.094 17.1931 115.221 16.0816 115.23 14.7009C115.24 13.3202 114.128 12.1932 112.748 12.1837L112.73 14.6836L112.713 17.1835ZM120.646 12.2383C119.266 12.2288 118.139 13.3403 118.129 14.721C118.119 16.1017 119.231 17.2287 120.612 17.2382L120.629 14.7383L120.646 12.2383ZM128.51 17.2929C129.891 17.3025 131.018 16.191 131.027 14.8103C131.037 13.4296 129.925 12.3026 128.545 12.293L128.527 14.793L128.51 17.2929ZM136.443 12.3477C135.062 12.3382 133.935 13.4497 133.926 14.8303C133.916 16.211 135.028 17.338 136.408 17.3476L136.426 14.8477L136.443 12.3477ZM144.307 17.4023C145.688 17.4118 146.815 16.3003 146.824 14.9197C146.834 13.539 145.722 12.412 144.342 12.4024L144.324 14.9023L144.307 17.4023ZM152.24 12.4571C150.859 12.4475 149.732 13.559 149.723 14.9397C149.713 16.3204 150.825 17.4474 152.205 17.457L152.223 14.957L152.24 12.4571ZM160.104 17.5117C161.484 17.5212 162.611 16.4097 162.621 15.029C162.631 13.6483 161.519 12.5213 160.138 12.5118L160.121 15.0117L160.104 17.5117ZM168.037 12.5665C166.656 12.5569 165.529 13.6684 165.52 15.0491C165.51 16.4298 166.622 17.5568 168.002 17.5663L168.02 15.0664L168.037 12.5665ZM175.901 17.621C177.281 17.6306 178.408 16.5191 178.418 15.1384C178.427 13.7577 177.316 12.6307 175.935 12.6212L175.918 15.1211L175.901 17.621ZM183.834 12.6758C182.453 12.6663 181.326 13.7778 181.316 15.1585C181.307 16.5392 182.418 17.6662 183.799 17.6757L183.816 15.1758L183.834 12.6758ZM191.698 17.7304C193.078 17.74 194.205 16.6285 194.215 15.2478C194.224 13.8671 193.113 12.7401 191.732 12.7305L191.715 15.2305L191.698 17.7304ZM199.631 12.7852C198.25 12.7757 197.123 13.8872 197.113 15.2678C197.104 16.6485 198.215 17.7755 199.596 17.7851L199.613 15.2852L199.631 12.7852ZM207.494 17.8398C208.875 17.8493 210.002 16.7378 210.012 15.3572C210.021 13.9765 208.91 12.8495 207.529 12.8399L207.512 15.3398L207.494 17.8398ZM215.427 12.8946C214.047 12.885 212.92 13.9965 212.91 15.3772C212.901 16.7579 214.012 17.8849 215.393 17.8945L215.41 15.3945L215.427 12.8946ZM223.291 17.9492C224.672 17.9587 225.799 16.8472 225.808 15.4665C225.818 14.0858 224.707 12.9588 223.326 12.9493L223.309 15.4492L223.291 17.9492ZM231.224 13.004C229.844 12.9944 228.717 14.1059 228.707 15.4866C228.697 16.8673 229.809 17.9943 231.19 18.0038L231.207 15.5039L231.224 13.004ZM239.088 18.0585C240.469 18.0681 241.596 16.9566 241.605 15.5759C241.615 14.1952 240.503 13.0682 239.123 13.0587L239.105 15.5586L239.088 18.0585ZM247.021 13.1133C245.64 13.1038 244.513 14.2153 244.504 15.596C244.494 16.9767 245.606 18.1037 246.987 18.1132L247.004 15.6133L247.021 13.1133ZM254.885 18.1679C256.266 18.1775 257.393 17.066 257.402 15.6853C257.412 14.3046 256.3 13.1776 254.92 13.168L254.902 15.668L254.885 18.1679ZM262.818 13.2227C261.437 13.2132 260.31 14.3247 260.301 15.7053C260.291 17.086 261.403 18.213 262.783 18.2226L262.801 15.7227L262.818 13.2227ZM270.682 18.2773C272.062 18.2868 273.19 17.1753 273.199 15.7947C273.209 14.414 272.097 13.287 270.716 13.2774L270.699 15.7773L270.682 18.2773ZM278.615 13.3321C277.234 13.3225 276.107 14.434 276.098 15.8147C276.088 17.1954 277.2 18.3224 278.58 18.332L278.598 15.832L278.615 13.3321ZM286.479 18.3867C287.859 18.3962 288.986 17.2847 288.996 15.904C289.005 14.5233 287.894 13.3963 286.513 13.3868L286.496 15.8867L286.479 18.3867ZM294.412 13.4415C293.031 13.4319 291.904 14.5434 291.895 15.9241C291.885 17.3048 292.996 18.4318 294.377 18.4413L294.394 15.9414L294.412 13.4415ZM302.276 18.496C303.656 18.5056 304.783 17.3941 304.793 16.0134C304.802 14.6327 303.691 13.5057 302.31 13.4962L302.293 15.9961L302.276 18.496ZM310.209 13.5508C308.828 13.5413 307.701 14.6528 307.691 16.0335C307.682 17.4141 308.793 18.5412 310.174 18.5507L310.191 16.0508L310.209 13.5508ZM318.072 18.6054C319.453 18.615 320.58 17.5035 320.59 16.1228C320.599 14.7421 319.488 13.6151 318.107 13.6055L318.09 16.1055L318.072 18.6054ZM326.005 13.6602C324.625 13.6507 323.498 14.7622 323.488 16.1428C323.479 17.5235 324.59 18.6505 325.971 18.6601L325.988 16.1602L326.005 13.6602ZM333.869 18.7148C335.25 18.7243 336.377 17.6128 336.387 16.2322C336.396 14.8515 335.285 13.7245 333.904 13.7149L333.887 16.2148L333.869 18.7148ZM341.802 13.7696C340.422 13.76 339.295 14.8715 339.285 16.2522C339.276 17.6329 340.387 18.7599 341.768 18.7695L341.785 16.2695L341.802 13.7696ZM349.666 18.8242C351.047 18.8337 352.174 17.7222 352.183 16.3415C352.193 14.9608 351.081 13.8338 349.701 13.8243L349.683 16.3242L349.666 18.8242ZM357.599 13.879C356.219 13.8694 355.091 14.9809 355.082 16.3616C355.072 17.7423 356.184 18.8693 357.565 18.8788L357.582 16.3789L357.599 13.879ZM365.463 18.9335C366.844 18.9431 367.971 17.8316 367.98 16.4509C367.99 15.0702 366.878 13.9432 365.498 13.9337L365.48 16.4336L365.463 18.9335ZM373.396 13.9883C372.015 13.9788 370.888 15.0903 370.879 16.471C370.869 17.8516 371.981 18.9787 373.361 18.9882L373.379 16.4883L373.396 13.9883ZM381.26 19.0429C382.641 19.0525 383.768 17.941 383.777 16.5603C383.787 15.1796 382.675 14.0526 381.294 14.043L381.277 16.543L381.26 19.0429ZM389.193 14.0977C387.812 14.0882 386.685 15.1997 386.676 16.5803C386.666 17.961 387.778 19.088 389.158 19.0976L389.176 16.5977L389.193 14.0977ZM397.057 19.1523C398.437 19.1618 399.564 18.0503 399.574 16.6697C399.584 15.289 398.472 14.162 397.091 14.1524L397.074 16.6523L397.057 19.1523ZM404.99 14.2071C403.609 14.1975 402.482 15.309 402.473 16.6897C402.463 18.0704 403.574 19.1974 404.955 19.207L404.972 16.707L404.99 14.2071ZM412.854 19.2617C414.234 19.2712 415.361 18.1597 415.371 16.779C415.38 15.3983 414.269 14.2713 412.888 14.2618L412.871 16.7617L412.854 19.2617ZM420.787 14.3165C419.406 14.3069 418.279 15.4184 418.269 16.7991C418.26 18.1798 419.371 19.3068 420.752 19.3163L420.769 16.8164L420.787 14.3165ZM428.65 19.371C430.031 19.3806 431.158 18.2691 431.168 16.8884C431.177 15.5077 430.066 14.3807 428.685 14.3712L428.668 16.8711L428.65 19.371ZM436.583 14.4258C435.203 14.4163 434.076 15.5278 434.066 16.9085C434.057 18.2891 435.168 19.4162 436.549 19.4257L436.566 16.9258L436.583 14.4258ZM444.447 19.4804C445.828 19.49 446.955 18.3785 446.965 16.9978C446.974 15.6171 445.863 14.4901 444.482 14.4805L444.465 16.9805L444.447 19.4804ZM452.38 14.5352C451 14.5257 449.873 15.6372 449.863 17.0178C449.854 18.3985 450.965 19.5255 452.346 19.5351L452.363 17.0352L452.38 14.5352ZM460.244 19.5898C461.625 19.5993 462.752 18.4878 462.761 17.1072C462.771 15.7265 461.659 14.5995 460.279 14.5899L460.261 17.0898L460.244 19.5898ZM468.177 14.6446C466.797 14.635 465.67 15.7465 465.66 17.1272C465.65 18.5079 466.762 19.6349 468.143 19.6445L468.16 17.1445L468.177 14.6446ZM476.041 19.6992C477.422 19.7087 478.549 18.5972 478.558 17.2165C478.568 15.8358 477.456 14.7088 476.076 14.6993L476.058 17.1992L476.041 19.6992ZM483.974 14.754C482.593 14.7444 481.466 15.8559 481.457 17.2366C481.447 18.6173 482.559 19.7443 483.939 19.7538L483.957 17.2539L483.974 14.754ZM491.838 19.8085C493.219 19.8181 494.346 18.7066 494.355 17.3259C494.365 15.9452 493.253 14.8182 491.873 14.8087L491.855 17.3086L491.838 19.8085ZM499.771 14.8633C498.39 14.8538 497.263 15.9653 497.254 17.346C497.244 18.7266 498.356 19.8537 499.736 19.8632L499.754 17.3633L499.771 14.8633ZM507.635 19.9179C509.015 19.9275 510.142 18.816 510.152 17.4353C510.162 16.0546 509.05 14.9276 507.669 14.918L507.652 17.418L507.635 19.9179ZM515.568 14.9727C514.187 14.9632 513.06 16.0747 513.051 17.4553C513.041 18.836 514.153 19.963 515.533 19.9726L515.551 17.4727L515.568 14.9727ZM517 22.1875C517 23.5682 518.119 24.6875 519.5 24.6875C520.881 24.6875 522 23.5682 522 22.1875H519.5H517ZM522 31.5625C522 30.1818 520.881 29.0625 519.5 29.0625C518.119 29.0625 517 30.1818 517 31.5625H519.5H522ZM517 40.9375C517 42.3182 518.119 43.4375 519.5 43.4375C520.881 43.4375 522 42.3182 522 40.9375H519.5H517ZM522 50.3125C522 48.9318 520.881 47.8125 519.5 47.8125C518.119 47.8125 517 48.9318 517 50.3125H519.5H522ZM517 58.625C517 60.0057 518.119 61.125 519.5 61.125C520.881 61.125 522 60.0057 522 58.625H519.5H517ZM522 65.875C522 64.4943 520.881 63.375 519.5 63.375C518.119 63.375 517 64.4943 517 65.875H519.5H522ZM517 73.125C517 74.5057 518.119 75.625 519.5 75.625C520.881 75.625 522 74.5057 522 73.125H519.5H517ZM522 80.375C522 78.9943 520.881 77.875 519.5 77.875C518.119 77.875 517 78.9943 517 80.375H519.5L522 80.375ZM517 87.625C517 89.0057 518.119 90.125 519.5 90.125C520.881 90.125 522 89.0057 522 87.625L519.5 87.625H517ZM522 94.875C522 93.4943 520.881 92.375 519.5 92.375C518.119 92.375 517 93.4943 517 94.875H519.5L522 94.875ZM517 102.125C517 103.506 518.119 104.625 519.5 104.625C520.881 104.625 522 103.506 522 102.125L519.5 102.125H517ZM522 109.375C522 107.994 520.881 106.875 519.5 106.875C518.119 106.875 517 107.994 517 109.375H519.5L522 109.375ZM517 116.625C517 118.006 518.119 119.125 519.5 119.125C520.881 119.125 522 118.006 522 116.625L519.5 116.625H517ZM522 123.875C522 122.494 520.881 121.375 519.5 121.375C518.119 121.375 517 122.494 517 123.875H519.5L522 123.875ZM14 14L13.9827 16.4999L17.9319 16.5273L17.9492 14.0273L17.9665 11.5274L14.0173 11.5001L14 14ZM25.8477 14.082L25.8303 16.582L33.7288 16.6367L33.7461 14.1367L33.7634 11.6368L25.865 11.5821L25.8477 14.082ZM41.6445 14.1914L41.6272 16.6913L49.5257 16.746L49.543 14.2461L49.5603 11.7462L41.6618 11.6915L41.6445 14.1914ZM57.4414 14.3008L57.4241 16.8007L65.3225 16.8554L65.3398 14.3555L65.3572 11.8555L57.4587 11.8008L57.4414 14.3008ZM73.2383 14.4102L73.221 16.9101L81.1194 16.9648L81.1367 14.4648L81.154 11.9649L73.2556 11.9102L73.2383 14.4102ZM89.0352 14.5195L89.0178 17.0195L96.9163 17.0742L96.9336 14.5742L96.9509 12.0743L89.0525 12.0196L89.0352 14.5195ZM104.832 14.6289L104.815 17.1288L112.713 17.1835L112.73 14.6836L112.748 12.1837L104.849 12.129L104.832 14.6289ZM120.629 14.7383L120.612 17.2382L128.51 17.2929L128.527 14.793L128.545 12.293L120.646 12.2383L120.629 14.7383ZM136.426 14.8477L136.408 17.3476L144.307 17.4023L144.324 14.9023L144.342 12.4024L136.443 12.3477L136.426 14.8477ZM152.223 14.957L152.205 17.457L160.104 17.5117L160.121 15.0117L160.138 12.5118L152.24 12.4571L152.223 14.957ZM168.02 15.0664L168.002 17.5663L175.901 17.621L175.918 15.1211L175.935 12.6212L168.037 12.5665L168.02 15.0664ZM183.816 15.1758L183.799 17.6757L191.698 17.7304L191.715 15.2305L191.732 12.7305L183.834 12.6758L183.816 15.1758ZM199.613 15.2852L199.596 17.7851L207.494 17.8398L207.512 15.3398L207.529 12.8399L199.631 12.7852L199.613 15.2852ZM215.41 15.3945L215.393 17.8945L223.291 17.9492L223.309 15.4492L223.326 12.9493L215.427 12.8946L215.41 15.3945ZM231.207 15.5039L231.19 18.0038L239.088 18.0585L239.105 15.5586L239.123 13.0587L231.224 13.004L231.207 15.5039ZM247.004 15.6133L246.987 18.1132L254.885 18.1679L254.902 15.668L254.92 13.168L247.021 13.1133L247.004 15.6133ZM262.801 15.7227L262.783 18.2226L270.682 18.2773L270.699 15.7773L270.716 13.2774L262.818 13.2227L262.801 15.7227ZM278.598 15.832L278.58 18.332L286.479 18.3867L286.496 15.8867L286.513 13.3868L278.615 13.3321L278.598 15.832ZM294.394 15.9414L294.377 18.4413L302.276 18.496L302.293 15.9961L302.31 13.4962L294.412 13.4415L294.394 15.9414ZM310.191 16.0508L310.174 18.5507L318.072 18.6054L318.09 16.1055L318.107 13.6055L310.209 13.5508L310.191 16.0508ZM325.988 16.1602L325.971 18.6601L333.869 18.7148L333.887 16.2148L333.904 13.7149L326.005 13.6602L325.988 16.1602ZM341.785 16.2695L341.768 18.7695L349.666 18.8242L349.683 16.3242L349.701 13.8243L341.802 13.7696L341.785 16.2695ZM357.582 16.3789L357.565 18.8788L365.463 18.9335L365.48 16.4336L365.498 13.9337L357.599 13.879L357.582 16.3789ZM373.379 16.4883L373.361 18.9882L381.26 19.0429L381.277 16.543L381.294 14.043L373.396 13.9883L373.379 16.4883ZM389.176 16.5977L389.158 19.0976L397.057 19.1523L397.074 16.6523L397.091 14.1524L389.193 14.0977L389.176 16.5977ZM404.972 16.707L404.955 19.207L412.854 19.2617L412.871 16.7617L412.888 14.2618L404.99 14.2071L404.972 16.707ZM420.769 16.8164L420.752 19.3163L428.65 19.371L428.668 16.8711L428.685 14.3712L420.787 14.3165L420.769 16.8164ZM436.566 16.9258L436.549 19.4257L444.447 19.4804L444.465 16.9805L444.482 14.4805L436.583 14.4258L436.566 16.9258ZM452.363 17.0352L452.346 19.5351L460.244 19.5898L460.261 17.0898L460.279 14.5899L452.38 14.5352L452.363 17.0352ZM468.16 17.1445L468.143 19.6445L476.041 19.6992L476.058 17.1992L476.076 14.6993L468.177 14.6446L468.16 17.1445ZM483.957 17.2539L483.939 19.7538L491.838 19.8085L491.855 17.3086L491.873 14.8087L483.974 14.754L483.957 17.2539ZM499.754 17.3633L499.736 19.8632L507.635 19.9179L507.652 17.418L507.669 14.918L499.771 14.8633L499.754 17.3633ZM515.551 17.4727L515.533 19.9726L519.483 19.9999L519.5 17.5L519.517 15.0001L515.568 14.9727L515.551 17.4727ZM519.5 17.5H517V22.1875H519.5H522V17.5H519.5ZM519.5 31.5625H517V40.9375H519.5H522V31.5625H519.5ZM519.5 50.3125H517V55H519.5H522V50.3125H519.5ZM519.5 55H517V58.625H519.5H522V55H519.5ZM519.5 65.875H517V73.125H519.5H522V65.875H519.5ZM519.5 80.375H517V87.625H519.5L522 87.625V80.375L519.5 80.375ZM519.5 94.875H517V102.125H519.5L522 102.125V94.875L519.5 94.875ZM519.5 109.375H517V116.625H519.5L522 116.625V109.375L519.5 109.375ZM519.5 123.875H517V127.5H519.5L522 127.5V123.875L519.5 123.875ZM0.666667 14C0.666667 21.3638 6.6362 27.3333 14 27.3333C21.3638 27.3333 27.3333 21.3638 27.3333 14C27.3333 6.6362 21.3638 0.666667 14 0.666667C6.6362 0.666667 0.666667 6.6362 0.666667 14ZM519.5 17.5H522C522 16.126 520.891 15.0096 519.517 15.0001L519.5 17.5ZM506.167 127.5C506.167 134.864 512.136 140.833 519.5 140.833C526.864 140.833 532.833 134.864 532.833 127.5C532.833 120.136 526.864 114.167 519.5 114.167C512.136 114.167 506.167 120.136 506.167 127.5ZM17.9319 16.5273C19.3126 16.5368 20.4396 15.4253 20.4492 14.0447C20.4587 12.664 19.3472 11.537 17.9665 11.5274L17.9492 14.0273L17.9319 16.5273ZM25.865 11.5821C24.4843 11.5725 23.3573 12.684 23.3477 14.0647C23.3382 15.4454 24.4497 16.5724 25.8303 16.582L25.8477 14.082L25.865 11.5821ZM33.7288 16.6367C35.1095 16.6462 36.2365 15.5347 36.246 14.154C36.2556 12.7733 35.1441 11.6463 33.7634 11.6368L33.7461 14.1367L33.7288 16.6367ZM41.6618 11.6915C40.2812 11.6819 39.1542 12.7934 39.1446 14.1741C39.135 15.5548 40.2465 16.6818 41.6272 16.6913L41.6445 14.1914L41.6618 11.6915ZM49.5257 16.746C50.9063 16.7556 52.0333 15.6441 52.0429 14.2634C52.0525 12.8827 50.941 11.7557 49.5603 11.7462L49.543 14.2461L49.5257 16.746ZM57.4587 11.8008C56.078 11.7913 54.951 12.9028 54.9415 14.2835C54.9319 15.6642 56.0434 16.7912 57.4241 16.8007L57.4414 14.3008L57.4587 11.8008ZM65.3225 16.8554C66.7032 16.865 67.8302 15.7535 67.8398 14.3728C67.8493 12.9921 66.7378 11.8651 65.3572 11.8555L65.3398 14.3555L65.3225 16.8554ZM73.2556 11.9102C71.8749 11.9007 70.7479 13.0122 70.7383 14.3928C70.7288 15.7735 71.8403 16.9005 73.221 16.9101L73.2383 14.4102L73.2556 11.9102ZM81.1194 16.9648C82.5001 16.9743 83.6271 15.8628 83.6367 14.4822C83.6462 13.1015 82.5347 11.9745 81.154 11.9649L81.1367 14.4648L81.1194 16.9648ZM89.0525 12.0196C87.6718 12.01 86.5448 13.1215 86.5352 14.5022C86.5257 15.8829 87.6372 17.0099 89.0178 17.0195L89.0352 14.5195L89.0525 12.0196ZM96.9163 17.0742C98.297 17.0837 99.424 15.9722 99.4335 14.5915C99.4431 13.2108 98.3316 12.0838 96.9509 12.0743L96.9336 14.5742L96.9163 17.0742ZM104.849 12.129C103.469 12.1194 102.342 13.2309 102.332 14.6116C102.323 15.9923 103.434 17.1193 104.815 17.1288L104.832 14.6289L104.849 12.129ZM112.713 17.1835C114.094 17.1931 115.221 16.0816 115.23 14.7009C115.24 13.3202 114.128 12.1932 112.748 12.1837L112.73 14.6836L112.713 17.1835ZM120.646 12.2383C119.266 12.2288 118.139 13.3403 118.129 14.721C118.119 16.1017 119.231 17.2287 120.612 17.2382L120.629 14.7383L120.646 12.2383ZM128.51 17.2929C129.891 17.3025 131.018 16.191 131.027 14.8103C131.037 13.4296 129.925 12.3026 128.545 12.293L128.527 14.793L128.51 17.2929ZM136.443 12.3477C135.062 12.3382 133.935 13.4497 133.926 14.8303C133.916 16.211 135.028 17.338 136.408 17.3476L136.426 14.8477L136.443 12.3477ZM144.307 17.4023C145.688 17.4118 146.815 16.3003 146.824 14.9197C146.834 13.539 145.722 12.412 144.342 12.4024L144.324 14.9023L144.307 17.4023ZM152.24 12.4571C150.859 12.4475 149.732 13.559 149.723 14.9397C149.713 16.3204 150.825 17.4474 152.205 17.457L152.223 14.957L152.24 12.4571ZM160.104 17.5117C161.484 17.5212 162.611 16.4097 162.621 15.029C162.631 13.6483 161.519 12.5213 160.138 12.5118L160.121 15.0117L160.104 17.5117ZM168.037 12.5665C166.656 12.5569 165.529 13.6684 165.52 15.0491C165.51 16.4298 166.622 17.5568 168.002 17.5663L168.02 15.0664L168.037 12.5665ZM175.901 17.621C177.281 17.6306 178.408 16.5191 178.418 15.1384C178.427 13.7577 177.316 12.6307 175.935 12.6212L175.918 15.1211L175.901 17.621ZM183.834 12.6758C182.453 12.6663 181.326 13.7778 181.316 15.1585C181.307 16.5392 182.418 17.6662 183.799 17.6757L183.816 15.1758L183.834 12.6758ZM191.698 17.7304C193.078 17.74 194.205 16.6285 194.215 15.2478C194.224 13.8671 193.113 12.7401 191.732 12.7305L191.715 15.2305L191.698 17.7304ZM199.631 12.7852C198.25 12.7757 197.123 13.8872 197.113 15.2678C197.104 16.6485 198.215 17.7755 199.596 17.7851L199.613 15.2852L199.631 12.7852ZM207.494 17.8398C208.875 17.8493 210.002 16.7378 210.012 15.3572C210.021 13.9765 208.91 12.8495 207.529 12.8399L207.512 15.3398L207.494 17.8398ZM215.427 12.8946C214.047 12.885 212.92 13.9965 212.91 15.3772C212.901 16.7579 214.012 17.8849 215.393 17.8945L215.41 15.3945L215.427 12.8946ZM223.291 17.9492C224.672 17.9587 225.799 16.8472 225.808 15.4665C225.818 14.0858 224.707 12.9588 223.326 12.9493L223.309 15.4492L223.291 17.9492ZM231.224 13.004C229.844 12.9944 228.717 14.1059 228.707 15.4866C228.697 16.8673 229.809 17.9943 231.19 18.0038L231.207 15.5039L231.224 13.004ZM239.088 18.0585C240.469 18.0681 241.596 16.9566 241.605 15.5759C241.615 14.1952 240.503 13.0682 239.123 13.0587L239.105 15.5586L239.088 18.0585ZM247.021 13.1133C245.64 13.1038 244.513 14.2153 244.504 15.596C244.494 16.9767 245.606 18.1037 246.987 18.1132L247.004 15.6133L247.021 13.1133ZM254.885 18.1679C256.266 18.1775 257.393 17.066 257.402 15.6853C257.412 14.3046 256.3 13.1776 254.92 13.168L254.902 15.668L254.885 18.1679ZM262.818 13.2227C261.437 13.2132 260.31 14.3247 260.301 15.7053C260.291 17.086 261.403 18.213 262.783 18.2226L262.801 15.7227L262.818 13.2227ZM270.682 18.2773C272.062 18.2868 273.19 17.1753 273.199 15.7947C273.209 14.414 272.097 13.287 270.716 13.2774L270.699 15.7773L270.682 18.2773ZM278.615 13.3321C277.234 13.3225 276.107 14.434 276.098 15.8147C276.088 17.1954 277.2 18.3224 278.58 18.332L278.598 15.832L278.615 13.3321ZM286.479 18.3867C287.859 18.3962 288.986 17.2847 288.996 15.904C289.005 14.5233 287.894 13.3963 286.513 13.3868L286.496 15.8867L286.479 18.3867ZM294.412 13.4415C293.031 13.4319 291.904 14.5434 291.895 15.9241C291.885 17.3048 292.996 18.4318 294.377 18.4413L294.394 15.9414L294.412 13.4415ZM302.276 18.496C303.656 18.5056 304.783 17.3941 304.793 16.0134C304.802 14.6327 303.691 13.5057 302.31 13.4962L302.293 15.9961L302.276 18.496ZM310.209 13.5508C308.828 13.5413 307.701 14.6528 307.691 16.0335C307.682 17.4141 308.793 18.5412 310.174 18.5507L310.191 16.0508L310.209 13.5508ZM318.072 18.6054C319.453 18.615 320.58 17.5035 320.59 16.1228C320.599 14.7421 319.488 13.6151 318.107 13.6055L318.09 16.1055L318.072 18.6054ZM326.005 13.6602C324.625 13.6507 323.498 14.7622 323.488 16.1428C323.479 17.5235 324.59 18.6505 325.971 18.6601L325.988 16.1602L326.005 13.6602ZM333.869 18.7148C335.25 18.7243 336.377 17.6128 336.387 16.2322C336.396 14.8515 335.285 13.7245 333.904 13.7149L333.887 16.2148L333.869 18.7148ZM341.802 13.7696C340.422 13.76 339.295 14.8715 339.285 16.2522C339.276 17.6329 340.387 18.7599 341.768 18.7695L341.785 16.2695L341.802 13.7696ZM349.666 18.8242C351.047 18.8337 352.174 17.7222 352.183 16.3415C352.193 14.9608 351.081 13.8338 349.701 13.8243L349.683 16.3242L349.666 18.8242ZM357.599 13.879C356.219 13.8694 355.091 14.9809 355.082 16.3616C355.072 17.7423 356.184 18.8693 357.565 18.8788L357.582 16.3789L357.599 13.879ZM365.463 18.9335C366.844 18.9431 367.971 17.8316 367.98 16.4509C367.99 15.0702 366.878 13.9432 365.498 13.9337L365.48 16.4336L365.463 18.9335ZM373.396 13.9883C372.015 13.9788 370.888 15.0903 370.879 16.471C370.869 17.8516 371.981 18.9787 373.361 18.9882L373.379 16.4883L373.396 13.9883ZM381.26 19.0429C382.641 19.0525 383.768 17.941 383.777 16.5603C383.787 15.1796 382.675 14.0526 381.294 14.043L381.277 16.543L381.26 19.0429ZM389.193 14.0977C387.812 14.0882 386.685 15.1997 386.676 16.5803C386.666 17.961 387.778 19.088 389.158 19.0976L389.176 16.5977L389.193 14.0977ZM397.057 19.1523C398.437 19.1618 399.564 18.0503 399.574 16.6697C399.584 15.289 398.472 14.162 397.091 14.1524L397.074 16.6523L397.057 19.1523ZM404.99 14.2071C403.609 14.1975 402.482 15.309 402.473 16.6897C402.463 18.0704 403.574 19.1974 404.955 19.207L404.972 16.707L404.99 14.2071ZM412.854 19.2617C414.234 19.2712 415.361 18.1597 415.371 16.779C415.38 15.3983 414.269 14.2713 412.888 14.2618L412.871 16.7617L412.854 19.2617ZM420.787 14.3165C419.406 14.3069 418.279 15.4184 418.269 16.7991C418.26 18.1798 419.371 19.3068 420.752 19.3163L420.769 16.8164L420.787 14.3165ZM428.65 19.371C430.031 19.3806 431.158 18.2691 431.168 16.8884C431.177 15.5077 430.066 14.3807 428.685 14.3712L428.668 16.8711L428.65 19.371ZM436.583 14.4258C435.203 14.4163 434.076 15.5278 434.066 16.9085C434.057 18.2891 435.168 19.4162 436.549 19.4257L436.566 16.9258L436.583 14.4258ZM444.447 19.4804C445.828 19.49 446.955 18.3785 446.965 16.9978C446.974 15.6171 445.863 14.4901 444.482 14.4805L444.465 16.9805L444.447 19.4804ZM452.38 14.5352C451 14.5257 449.873 15.6372 449.863 17.0178C449.854 18.3985 450.965 19.5255 452.346 19.5351L452.363 17.0352L452.38 14.5352ZM460.244 19.5898C461.625 19.5993 462.752 18.4878 462.761 17.1072C462.771 15.7265 461.659 14.5995 460.279 14.5899L460.261 17.0898L460.244 19.5898ZM468.177 14.6446C466.797 14.635 465.67 15.7465 465.66 17.1272C465.65 18.5079 466.762 19.6349 468.143 19.6445L468.16 17.1445L468.177 14.6446ZM476.041 19.6992C477.422 19.7087 478.549 18.5972 478.558 17.2165C478.568 15.8358 477.456 14.7088 476.076 14.6993L476.058 17.1992L476.041 19.6992ZM483.974 14.754C482.593 14.7444 481.466 15.8559 481.457 17.2366C481.447 18.6173 482.559 19.7443 483.939 19.7538L483.957 17.2539L483.974 14.754ZM491.838 19.8085C493.219 19.8181 494.346 18.7066 494.355 17.3259C494.365 15.9452 493.253 14.8182 491.873 14.8087L491.855 17.3086L491.838 19.8085ZM499.771 14.8633C498.39 14.8538 497.263 15.9653 497.254 17.346C497.244 18.7266 498.356 19.8537 499.736 19.8632L499.754 17.3633L499.771 14.8633ZM507.635 19.9179C509.015 19.9275 510.142 18.816 510.152 17.4353C510.162 16.0546 509.05 14.9276 507.669 14.918L507.652 17.418L507.635 19.9179ZM515.568 14.9727C514.187 14.9632 513.06 16.0747 513.051 17.4553C513.041 18.836 514.153 19.963 515.533 19.9726L515.551 17.4727L515.568 14.9727ZM517 22.1875C517 23.5682 518.119 24.6875 519.5 24.6875C520.881 24.6875 522 23.5682 522 22.1875H519.5H517ZM522 31.5625C522 30.1818 520.881 29.0625 519.5 29.0625C518.119 29.0625 517 30.1818 517 31.5625H519.5H522ZM517 40.9375C517 42.3182 518.119 43.4375 519.5 43.4375C520.881 43.4375 522 42.3182 522 40.9375H519.5H517ZM522 50.3125C522 48.9318 520.881 47.8125 519.5 47.8125C518.119 47.8125 517 48.9318 517 50.3125H519.5H522ZM517 58.625C517 60.0057 518.119 61.125 519.5 61.125C520.881 61.125 522 60.0057 522 58.625H519.5H517ZM522 65.875C522 64.4943 520.881 63.375 519.5 63.375C518.119 63.375 517 64.4943 517 65.875H519.5H522ZM517 73.125C517 74.5057 518.119 75.625 519.5 75.625C520.881 75.625 522 74.5057 522 73.125H519.5H517ZM522 80.375C522 78.9943 520.881 77.875 519.5 77.875C518.119 77.875 517 78.9943 517 80.375H519.5L522 80.375ZM517 87.625C517 89.0057 518.119 90.125 519.5 90.125C520.881 90.125 522 89.0057 522 87.625L519.5 87.625H517ZM522 94.875C522 93.4943 520.881 92.375 519.5 92.375C518.119 92.375 517 93.4943 517 94.875H519.5L522 94.875ZM517 102.125C517 103.506 518.119 104.625 519.5 104.625C520.881 104.625 522 103.506 522 102.125L519.5 102.125H517ZM522 109.375C522 107.994 520.881 106.875 519.5 106.875C518.119 106.875 517 107.994 517 109.375H519.5L522 109.375ZM517 116.625C517 118.006 518.119 119.125 519.5 119.125C520.881 119.125 522 118.006 522 116.625L519.5 116.625H517ZM522 123.875C522 122.494 520.881 121.375 519.5 121.375C518.119 121.375 517 122.494 517 123.875H519.5L522 123.875ZM14 14L13.9827 16.4999L17.9319 16.5273L17.9492 14.0273L17.9665 11.5274L14.0173 11.5001L14 14ZM25.8477 14.082L25.8303 16.582L33.7288 16.6367L33.7461 14.1367L33.7634 11.6368L25.865 11.5821L25.8477 14.082ZM41.6445 14.1914L41.6272 16.6913L49.5257 16.746L49.543 14.2461L49.5603 11.7462L41.6618 11.6915L41.6445 14.1914ZM57.4414 14.3008L57.4241 16.8007L65.3225 16.8554L65.3398 14.3555L65.3572 11.8555L57.4587 11.8008L57.4414 14.3008ZM73.2383 14.4102L73.221 16.9101L81.1194 16.9648L81.1367 14.4648L81.154 11.9649L73.2556 11.9102L73.2383 14.4102ZM89.0352 14.5195L89.0178 17.0195L96.9163 17.0742L96.9336 14.5742L96.9509 12.0743L89.0525 12.0196L89.0352 14.5195ZM104.832 14.6289L104.815 17.1288L112.713 17.1835L112.73 14.6836L112.748 12.1837L104.849 12.129L104.832 14.6289ZM120.629 14.7383L120.612 17.2382L128.51 17.2929L128.527 14.793L128.545 12.293L120.646 12.2383L120.629 14.7383ZM136.426 14.8477L136.408 17.3476L144.307 17.4023L144.324 14.9023L144.342 12.4024L136.443 12.3477L136.426 14.8477ZM152.223 14.957L152.205 17.457L160.104 17.5117L160.121 15.0117L160.138 12.5118L152.24 12.4571L152.223 14.957ZM168.02 15.0664L168.002 17.5663L175.901 17.621L175.918 15.1211L175.935 12.6212L168.037 12.5665L168.02 15.0664ZM183.816 15.1758L183.799 17.6757L191.698 17.7304L191.715 15.2305L191.732 12.7305L183.834 12.6758L183.816 15.1758ZM199.613 15.2852L199.596 17.7851L207.494 17.8398L207.512 15.3398L207.529 12.8399L199.631 12.7852L199.613 15.2852ZM215.41 15.3945L215.393 17.8945L223.291 17.9492L223.309 15.4492L223.326 12.9493L215.427 12.8946L215.41 15.3945ZM231.207 15.5039L231.19 18.0038L239.088 18.0585L239.105 15.5586L239.123 13.0587L231.224 13.004L231.207 15.5039ZM247.004 15.6133L246.987 18.1132L254.885 18.1679L254.902 15.668L254.92 13.168L247.021 13.1133L247.004 15.6133ZM262.801 15.7227L262.783 18.2226L270.682 18.2773L270.699 15.7773L270.716 13.2774L262.818 13.2227L262.801 15.7227ZM278.598 15.832L278.58 18.332L286.479 18.3867L286.496 15.8867L286.513 13.3868L278.615 13.3321L278.598 15.832ZM294.394 15.9414L294.377 18.4413L302.276 18.496L302.293 15.9961L302.31 13.4962L294.412 13.4415L294.394 15.9414ZM310.191 16.0508L310.174 18.5507L318.072 18.6054L318.09 16.1055L318.107 13.6055L310.209 13.5508L310.191 16.0508ZM325.988 16.1602L325.971 18.6601L333.869 18.7148L333.887 16.2148L333.904 13.7149L326.005 13.6602L325.988 16.1602ZM341.785 16.2695L341.768 18.7695L349.666 18.8242L349.683 16.3242L349.701 13.8243L341.802 13.7696L341.785 16.2695ZM357.582 16.3789L357.565 18.8788L365.463 18.9335L365.48 16.4336L365.498 13.9337L357.599 13.879L357.582 16.3789ZM373.379 16.4883L373.361 18.9882L381.26 19.0429L381.277 16.543L381.294 14.043L373.396 13.9883L373.379 16.4883ZM389.176 16.5977L389.158 19.0976L397.057 19.1523L397.074 16.6523L397.091 14.1524L389.193 14.0977L389.176 16.5977ZM404.972 16.707L404.955 19.207L412.854 19.2617L412.871 16.7617L412.888 14.2618L404.99 14.2071L404.972 16.707ZM420.769 16.8164L420.752 19.3163L428.65 19.371L428.668 16.8711L428.685 14.3712L420.787 14.3165L420.769 16.8164ZM436.566 16.9258L436.549 19.4257L444.447 19.4804L444.465 16.9805L444.482 14.4805L436.583 14.4258L436.566 16.9258ZM452.363 17.0352L452.346 19.5351L460.244 19.5898L460.261 17.0898L460.279 14.5899L452.38 14.5352L452.363 17.0352ZM468.16 17.1445L468.143 19.6445L476.041 19.6992L476.058 17.1992L476.076 14.6993L468.177 14.6446L468.16 17.1445ZM483.957 17.2539L483.939 19.7538L491.838 19.8085L491.855 17.3086L491.873 14.8087L483.974 14.754L483.957 17.2539ZM499.754 17.3633L499.736 19.8632L507.635 19.9179L507.652 17.418L507.669 14.918L499.771 14.8633L499.754 17.3633ZM515.551 17.4727L515.533 19.9726L519.483 19.9999L519.5 17.5L519.517 15.0001L515.568 14.9727L515.551 17.4727ZM519.5 17.5H517V22.1875H519.5H522V17.5H519.5ZM519.5 31.5625H517V40.9375H519.5H522V31.5625H519.5ZM519.5 50.3125H517V55H519.5H522V50.3125H519.5ZM519.5 55H517V58.625H519.5H522V55H519.5ZM519.5 65.875H517V73.125H519.5H522V65.875H519.5ZM519.5 80.375H517V87.625H519.5L522 87.625V80.375L519.5 80.375ZM519.5 94.875H517V102.125H519.5L522 102.125V94.875L519.5 94.875ZM519.5 109.375H517V116.625H519.5L522 116.625V109.375L519.5 109.375ZM519.5 123.875H517V127.5H519.5L522 127.5V123.875L519.5 123.875Z" fill="black" fill-opacity="0.8"/>
</svg>
