<svg width="543" height="752" viewBox="0 0 543 752" fill="none" xmlns="http://www.w3.org/2000/svg">
<path d="M54.8337 12.7075H433.969L435.748 12.7192C470.546 13.1013 503.716 22.1608 529.834 37.9203V737.686C528.301 737.36 526.791 736.976 525.312 736.529L523.903 736.102C520.107 734.795 516.66 732.997 513.359 730.848L512.625 730.362C511.878 729.855 511.211 729.503 510.742 729.275C510.668 729.239 510.594 729.205 510.522 729.171L450.687 685.492C428.104 669.006 397.478 659.916 366.725 659.915H54.8337C42.7252 659.915 31.624 656.376 23.9021 650.739C16.2419 645.147 13.1668 638.549 13.1667 632.874V39.7495C13.1667 34.0746 16.2418 27.4772 23.9021 21.8852C31.624 16.2482 42.7251 12.7075 54.8337 12.7075ZM96.4998 605.832H366.697L368.643 605.843C409.496 606.211 449.137 615.296 482.646 631.791L500.667 640.663V118.832C500.667 102.967 491.811 89.6665 479.67 80.7973C467.512 71.9163 451.324 66.7905 434 66.7905H96.4998V605.832Z" fill="#B9FF66" stroke="black" stroke-width="25"/>
</svg>
