<svg width="543" height="752" viewBox="0 0 543 752" fill="none" xmlns="http://www.w3.org/2000/svg">
<path d="M487.85 13.1315C499.958 13.1315 511.059 16.6723 518.781 22.3093C526.441 27.9013 529.517 34.4986 529.517 40.1735V633.299C529.517 638.973 526.441 645.571 518.781 651.163C511.059 656.8 499.958 660.34 487.85 660.34H175.928C144.975 660.414 114.805 669.363 92.0244 685.895L92.0107 685.905L91.9961 685.916L32.1602 729.595C32.0889 729.629 32.0153 729.663 31.9414 729.699C31.4721 729.927 30.8051 730.279 30.0586 730.786C26.5328 733.15 22.8554 735.124 18.7744 736.528L17.3711 736.953C15.8928 737.4 14.3826 737.784 12.8496 738.11V38.3444C38.9677 22.585 72.1373 13.5254 106.936 13.1432L108.714 13.1315H487.85ZM108.683 67.2145C91.3581 67.2146 75.1709 72.3405 63.0137 81.2214C50.8725 90.0906 42.0166 103.391 42.0166 119.257V641.072L60.0303 632.219C93.856 615.595 134.476 606.257 175.958 606.257H446.183V67.2145H108.683Z" fill="#B9FF66" stroke="black" stroke-width="25"/>
</svg>
