<svg width="601" height="515" viewBox="0 0 601 515" fill="none" xmlns="http://www.w3.org/2000/svg">
<g clip-path="url(#clip0_105_518)">
<path d="M311.536 432.535L329.137 427.349L324.001 445L329.137 462.601L311.536 457.465L293.885 462.601L299.07 445L293.885 427.349L311.536 432.535Z" fill="black" stroke="white" stroke-miterlimit="10"/>
</g>
<g clip-path="url(#clip1_105_518)">
<path d="M125.484 345.509L156.96 362.659L125.484 379.947L108.266 411.354L91.0468 379.947L59.5708 362.659L91.0468 345.509L108.266 313.964L125.484 345.509Z" fill="black" stroke="white" stroke-miterlimit="10"/>
</g>
<path d="M346.123 201.187C414.562 238.937 473.295 278.935 512.928 313.077C532.747 330.151 547.77 345.742 556.843 358.842C561.381 365.393 564.413 371.297 565.825 376.433C567.236 381.568 567.017 385.89 565.117 389.333C563.217 392.777 559.679 395.268 554.584 396.813C549.486 398.359 542.874 398.943 534.913 398.6C518.993 397.913 497.791 393.524 472.777 385.868C422.757 370.558 357.594 342.216 289.155 304.465C220.716 266.715 161.982 226.717 122.349 192.575C102.53 175.501 87.5081 159.91 78.4345 146.81C73.8971 140.259 70.8635 134.355 69.4517 129.218C68.0406 124.084 68.2601 119.763 70.1595 116.319C72.0591 112.875 75.5976 110.384 80.693 108.839C85.7907 107.293 92.4034 106.709 100.365 107.052C116.285 107.739 137.486 112.128 162.5 119.784C212.52 135.094 277.683 163.436 346.123 201.187Z" stroke="black"/>
<path d="M325.892 237.861C394.331 275.611 453.065 315.609 492.697 349.751C512.517 366.825 527.539 382.416 536.613 395.516C541.15 402.066 544.183 407.971 545.595 413.107C547.006 418.241 546.786 422.563 544.886 426.007C542.987 429.451 539.449 431.942 534.353 433.487C529.256 435.033 522.644 435.617 514.683 435.274C498.762 434.587 477.561 430.198 452.546 422.542C402.526 407.232 337.364 378.89 268.925 341.139C200.485 303.389 141.751 263.391 102.119 229.249C82.2997 212.175 67.2776 196.584 58.204 183.484C53.6666 176.933 50.6331 171.029 49.2212 165.892C47.8101 160.758 48.0297 156.437 49.9291 152.993C51.8286 149.549 55.3672 147.057 60.4625 145.512C65.5603 143.966 72.173 143.383 80.1343 143.726C96.0546 144.413 117.256 148.802 142.27 156.458C192.29 171.768 257.453 200.11 325.892 237.861Z" stroke="black"/>
<path d="M305.665 274.535C374.104 312.285 432.837 352.283 472.47 386.425C492.289 403.499 507.312 419.09 516.385 432.19C520.923 438.741 523.955 444.645 525.367 449.782C526.778 454.916 526.558 459.238 524.659 462.682C522.759 466.125 519.221 468.616 514.126 470.161C509.028 471.707 502.416 472.292 494.455 471.948C478.535 471.261 457.333 466.872 432.319 459.216C382.299 443.906 317.136 415.564 248.697 377.814C180.258 340.063 121.524 300.065 81.8912 265.923C62.0722 248.849 47.0501 233.258 37.9765 220.158C33.4391 213.608 30.4055 207.703 28.9937 202.566C27.5826 197.433 27.8021 193.111 29.7015 189.667C31.6011 186.223 35.1396 183.732 40.235 182.187C45.3327 180.641 51.9454 180.057 59.9067 180.4C75.827 181.087 97.0283 185.476 122.042 193.132C172.062 208.442 237.225 236.784 305.665 274.535Z" stroke="black"/>
<circle cx="132.037" cy="104.5" r="15.5" fill="#B9FF66"/>
<circle cx="421.537" cy="435" r="10" fill="#B9FF66"/>
<circle cx="82.0381" cy="64.5" r="23.5" fill="black"/>
<path d="M306.51 383.59C300.206 385.744 293.002 381.474 290.496 374.071L251.497 259.809L274.285 252.014L313.323 366.433C315.829 373.758 312.775 381.435 306.51 383.59Z" fill="black"/>
<path d="M303.103 385C301.263 385 299.384 384.569 297.582 383.668C293.941 381.866 291.043 378.498 289.634 374.345L250.635 260.084C250.479 259.653 250.714 259.144 251.183 258.987L273.972 251.192C274.207 251.113 274.442 251.113 274.637 251.231C274.833 251.348 274.99 251.505 275.068 251.74L314.106 366.159C316.729 373.914 313.44 382.101 306.745 384.412C305.609 384.804 304.356 385 303.103 385ZM252.593 260.358L291.318 373.797C292.57 377.518 295.155 380.574 298.365 382.14C300.95 383.394 303.73 383.629 306.236 382.767C312.031 380.769 314.85 373.562 312.501 366.707L273.737 253.111L252.593 260.358Z" fill="black"/>
<path d="M270.252 153.382L196.522 205.988L167.822 235.798L156.545 255.736L156.506 255.892C154.274 259.339 155.566 267.291 159.756 275.399C163.867 283.39 169.662 288.953 173.734 289.266L173.617 289.344L195.269 291.695L235.795 285.231L321.819 254.443L428.752 272.775L429.496 272.814C402.636 267.8 366.378 231.88 340.026 181.076C313.714 130.31 305.335 80.132 316.886 55.376H316.846L270.839 152.128L270.252 153.382Z" fill="#B9FF66"/>
<path d="M447.267 270.603C473.695 256.873 468.584 194.629 435.853 131.577C403.122 68.5249 355.164 28.5414 328.737 42.2714C302.309 56.0013 307.42 118.245 340.151 181.297C372.882 244.349 420.84 284.333 447.267 270.603Z" fill="white"/>
<path d="M435.644 274.185C424.132 274.185 410.271 267.761 395.353 255.266C375.032 238.266 355.102 212.06 339.244 181.428C315.242 135.05 305.335 87.4964 314.028 60.2726C316.925 51.1849 321.781 44.8392 328.398 41.4313C341.554 34.6939 360.074 40.4129 380.592 57.5698C400.913 74.57 420.843 100.775 436.701 131.407C460.743 177.786 470.649 225.339 461.917 252.563C459.02 261.651 454.164 267.996 447.547 271.404C443.984 273.284 439.99 274.185 435.644 274.185ZM340.379 40.4129C336.346 40.4129 332.587 41.2355 329.22 42.9982C322.994 46.171 318.452 52.2033 315.712 60.8601C307.137 87.6922 317.004 134.737 340.81 180.723C373.231 243.279 420.765 283.312 446.803 269.955C453.029 266.782 457.571 260.75 460.312 252.093C468.887 225.261 459.02 178.216 435.213 132.23C406.982 77.782 367.357 40.4129 340.379 40.4129Z" fill="black"/>
<path d="M435.644 274.185C424.132 274.185 410.271 267.761 395.353 255.266C375.032 238.265 355.102 212.06 339.244 181.428C315.242 135.05 305.335 87.4963 314.028 60.2725C316.925 51.1848 321.781 44.8391 328.398 41.4312C337.208 36.8874 348.719 38.0234 361.68 44.6824C374.092 51.0673 387.522 62.3877 400.6 77.3902C400.913 77.7427 400.874 78.2911 400.522 78.6045C400.169 78.9179 399.621 78.8787 399.308 78.5262C372.761 48.0511 345.9 34.4196 329.22 42.9981C322.994 46.1709 318.452 52.2033 315.712 60.86C307.137 87.6922 317.004 134.737 340.81 180.723C369.002 235.132 408.666 272.54 435.605 272.54C439.638 272.54 443.397 271.717 446.764 269.955C452.99 266.782 457.532 260.75 460.273 252.093C468.848 225.261 458.981 178.216 435.174 132.23C428.087 118.52 420.099 105.632 411.524 93.9204C411.25 93.5286 411.329 92.9803 411.72 92.7061C412.112 92.4319 412.66 92.5102 412.934 92.9019C421.587 104.692 429.575 117.658 436.74 131.446C460.743 177.785 470.649 225.339 461.917 252.563C459.02 261.65 454.164 267.996 447.547 271.404C443.984 273.284 439.99 274.185 435.644 274.185Z" fill="black"/>
<path d="M387.304 190.339C393.427 187.158 392.249 172.75 384.674 158.159C377.099 143.567 365.996 134.316 359.873 137.497C353.751 140.678 354.929 155.085 362.504 169.677C370.078 184.269 381.182 193.519 387.304 190.339Z" fill="#B9FF66"/>
<path d="M384.625 191.848C377.89 191.848 368.493 183.152 361.719 170.03C356.081 159.14 353.771 147.937 355.846 141.474C356.59 139.202 357.804 137.596 359.487 136.734C366.144 133.326 377.538 142.61 385.447 157.847C391.086 168.737 393.396 179.94 391.321 186.403C390.577 188.675 389.363 190.281 387.679 191.143C386.739 191.613 385.721 191.848 384.625 191.848ZM362.541 137.714C361.719 137.714 360.936 137.87 360.27 138.223C358.978 138.889 358.039 140.142 357.451 141.983C355.533 148.016 357.765 158.748 363.207 169.246C370.412 183.152 381.258 192.514 386.857 189.615C388.149 188.949 389.089 187.696 389.676 185.855C391.595 179.783 389.324 169.09 383.92 158.592C377.577 146.41 368.493 137.714 362.541 137.714Z" fill="#B9FF66"/>
<path d="M429.693 259.574C419.591 259.574 407.453 253.934 394.375 243.005C376.598 228.12 359.135 205.166 345.274 178.373C324.248 137.792 315.594 96.153 323.19 72.2978C325.736 64.307 330.004 58.7447 335.838 55.7285C349.229 48.8736 368.924 56.7861 389.911 77.4292C390.263 77.7818 390.263 78.291 389.911 78.6435C389.559 78.9961 389.05 78.9961 388.697 78.6435C368.258 58.5488 349.268 50.7146 336.621 57.2562C331.217 60.0373 327.263 65.2471 324.835 72.8071C317.356 96.2313 325.971 137.361 346.801 177.589C371.43 225.182 406.082 257.851 429.654 257.851C433.178 257.851 436.427 257.107 439.403 255.618C444.807 252.837 448.761 247.627 451.189 240.067C458.668 216.643 450.053 175.513 429.223 135.285C422.919 123.142 415.871 111.743 408.275 101.441C408.001 101.049 408.079 100.501 408.471 100.227C408.862 99.9526 409.41 100.031 409.684 100.423C417.359 110.842 424.446 122.28 430.789 134.501C451.815 175.082 460.469 216.721 452.873 240.576C450.328 248.567 446.06 254.13 440.225 257.146C437.015 258.752 433.491 259.574 429.693 259.574Z" fill="black"/>
<path d="M195.309 292.517C195.27 292.517 195.231 292.517 195.231 292.517L173.578 290.167C173.461 290.167 173.343 290.128 173.226 290.05C168.762 289.344 163.124 283.704 159.012 275.791C154.627 267.448 153.335 259.3 155.723 255.462L155.763 255.344L167.039 235.367C167.078 235.289 167.118 235.249 167.157 235.21L195.858 205.401C195.897 205.362 195.936 205.323 195.975 205.284L269.509 152.794L316.025 54.9845C316.142 54.7886 316.299 54.632 316.534 54.5536C316.769 54.4753 317.004 54.4753 317.2 54.5928C317.63 54.7886 317.826 55.2979 317.63 55.7288C305.845 80.994 315.164 131.211 340.771 180.645C366.418 230.157 402.166 266.821 429.693 271.874C430.123 271.953 430.437 272.344 430.397 272.814C430.358 273.245 429.967 273.559 429.536 273.598L428.792 273.559C428.753 273.559 428.714 273.559 428.675 273.559L321.937 255.266L236.109 285.976C236.07 285.976 235.992 286.015 235.952 286.015L195.427 292.478C195.388 292.517 195.348 292.517 195.309 292.517ZM174.205 288.522L195.309 290.794L235.639 284.331L321.624 253.581C321.781 253.542 321.898 253.503 322.055 253.542L418.142 269.994C392.182 258.595 361.837 224.947 339.322 181.468C316.965 138.301 306.98 94.4689 312.462 66.775L271.036 153.735C270.957 153.852 270.879 153.97 270.761 154.048L197.11 206.655L168.527 236.307L157.25 256.284C157.25 256.323 157.211 256.363 157.211 256.363C155.175 259.535 156.546 267.37 160.5 275.008C164.377 282.49 169.976 288.13 173.813 288.404C173.97 288.404 174.087 288.444 174.205 288.522Z" fill="black"/>
<path d="M270.368 153.069L316.846 55.3369H316.885C305.334 80.093 313.752 130.271 340.026 181.037C366.377 231.881 402.635 267.8 429.574 272.736L428.83 272.697L322.053 254.404L319.586 253.973C307.174 251.779 290.612 235.641 278.748 212.608C266.57 188.988 264.417 165.447 269.82 154.244L270.368 153.069Z" fill="white"/>
<path d="M429.574 273.598C429.535 273.598 429.574 273.598 429.574 273.598L428.791 273.558C428.752 273.558 428.712 273.558 428.673 273.558L321.897 255.266L319.43 254.835C306.313 252.524 289.672 235.719 277.965 213.039C264.691 187.265 264.026 164.311 269.037 153.891L269.625 152.716L316.102 55.0236C316.219 54.8277 316.376 54.671 316.611 54.5927C316.846 54.5143 317.081 54.5143 317.277 54.6319C317.707 54.8277 317.903 55.3369 317.707 55.7678C305.922 81.0331 315.241 131.25 340.848 180.684C366.495 230.196 402.244 266.86 429.77 271.913C430.2 271.992 430.514 272.383 430.474 272.853C430.357 273.245 430.005 273.598 429.574 273.598ZM312.382 66.7749L271.152 153.46L270.564 154.635C265.592 164.977 267.04 188.087 279.492 212.217C290.964 234.466 307.135 250.918 319.743 253.111L322.21 253.542L418.101 269.994C392.141 258.595 361.796 224.947 339.282 181.467C316.924 138.301 306.94 94.4687 312.382 66.7749Z" fill="black"/>
<path d="M194.134 292.4C194.095 292.4 194.056 292.4 194.056 292.4L173.539 290.206C173.421 290.206 173.304 290.167 173.186 290.089C168.722 289.383 163.084 283.743 158.973 275.83C154.627 267.448 153.334 259.3 155.723 255.461L155.762 255.344L167.039 235.367C167.274 234.936 167.783 234.818 168.213 235.053C168.644 235.288 168.762 235.798 168.527 236.228L157.25 256.284C157.25 256.323 157.211 256.362 157.211 256.362C155.175 259.535 156.545 267.369 160.5 275.008C164.376 282.489 169.975 288.13 173.813 288.404C173.93 288.404 174.087 288.443 174.165 288.522L194.212 290.676C194.682 290.715 195.035 291.146 194.956 291.616C194.917 292.047 194.565 292.4 194.134 292.4Z" fill="black"/>
<path d="M195.504 291.538C188.848 291.068 179.529 281.628 172.755 268.584C165.59 254.757 163.906 240.459 168.291 235.367L156.584 255.736L156.506 255.893C154.274 259.34 155.566 267.291 159.756 275.4C163.867 283.391 169.662 288.953 173.734 289.266L173.617 289.345L195.504 291.538Z" fill="white"/>
<path d="M195.505 292.4C195.465 292.4 195.465 292.4 195.426 292.4C195.27 292.4 195.074 292.361 194.917 292.361L173.539 290.206C173.421 290.206 173.304 290.167 173.186 290.089C168.722 289.384 163.084 283.743 158.973 275.83C154.627 267.448 153.334 259.3 155.723 255.462L155.762 255.344L166.06 237.404C166.451 236.385 166.96 235.484 167.587 234.74C167.861 234.388 168.37 234.348 168.722 234.583C169.075 234.858 169.192 235.328 168.957 235.719L167.509 238.187C165.198 244.415 167.469 256.637 173.421 268.075C179.882 280.57 188.692 289.697 194.996 290.52L195.465 290.559C195.935 290.598 196.288 291.029 196.249 291.499C196.288 292.047 195.935 292.4 195.505 292.4ZM174.165 288.522L189.122 290.05C183.366 286.367 177.023 278.768 171.972 268.976C167.078 259.535 164.65 249.743 165.042 242.692L157.25 256.284C157.25 256.323 157.211 256.363 157.211 256.363C155.175 259.535 156.545 267.37 160.5 275.008C164.376 282.49 169.975 288.13 173.813 288.404C173.93 288.404 174.087 288.444 174.165 288.522Z" fill="black"/>
<path d="M234.346 285.388L236.069 285.035C226.75 286.994 212.027 272.892 201.651 252.876C191.04 232.429 189.043 212.021 196.561 205.988L195.582 206.968L168.369 235.249C163.906 240.263 165.55 254.639 172.755 268.544C179.685 281.941 189.513 291.499 196.209 291.459L234.346 285.388Z" fill="black"/>
<path d="M196.17 292.36C189.044 292.36 179.138 282.764 171.972 268.975C164.69 254.874 162.849 240.146 167.705 234.701L194.408 206.968C194.878 206.341 195.426 205.793 196.014 205.323C196.366 205.048 196.875 205.088 197.188 205.401C197.502 205.753 197.502 206.263 197.188 206.576L195.661 208.182C190.219 215.468 192.921 234.113 202.435 252.484C212.694 272.305 227.025 285.897 235.795 284.252L235.913 284.213C236.383 284.135 236.814 284.409 236.931 284.879C237.009 285.349 236.735 285.78 236.265 285.897C236.226 285.897 236.187 285.897 236.148 285.936L234.543 286.25H234.503L196.366 292.321C196.288 292.321 196.21 292.36 196.17 292.36ZM192.137 211.825L168.997 235.876C164.69 240.733 166.647 254.913 173.539 268.192C180.273 281.197 189.788 290.598 196.17 290.637L229.844 285.27C220.76 282.058 209.561 269.955 200.908 253.307C192.686 237.443 189.514 221.304 192.137 211.825Z" fill="black"/>
<path d="M359.879 137.479C353.732 140.612 354.632 155.145 362.463 169.638C375.58 193.885 386.035 191.025 387.249 190.594C387.288 190.594 387.288 190.634 387.249 190.634L364.734 208.77C358.117 199.486 351.813 189.145 346.018 177.981C340.497 167.288 335.838 156.633 332.157 146.292L359.879 137.479Z" fill="black"/>
<path d="M364.734 209.631C364.695 209.631 364.656 209.631 364.617 209.631C364.382 209.592 364.186 209.475 364.029 209.279C357.256 199.76 350.952 189.341 345.274 178.412C339.831 167.914 335.133 157.221 331.374 146.645C331.296 146.41 331.296 146.174 331.413 145.979C331.531 145.783 331.687 145.626 331.922 145.548L359.644 136.734C360.075 136.617 360.545 136.813 360.701 137.243C360.858 137.674 360.701 138.144 360.31 138.34C358.978 139.006 357.999 140.338 357.412 142.297C355.494 148.446 357.843 159.336 363.285 169.325C376.089 192.984 385.956 190.281 387.014 189.889C387.405 189.733 387.875 189.928 388.071 190.281C388.266 190.634 388.188 191.143 387.875 191.417L365.282 209.436C365.126 209.553 364.93 209.631 364.734 209.631ZM333.293 146.84C337.012 157.064 341.554 167.405 346.801 177.59C352.283 188.166 358.391 198.233 364.93 207.516L384.468 191.77C380.005 191.574 371.586 188.244 361.719 170.03C356.003 159.493 353.653 148.368 355.728 141.67C356.003 140.808 356.316 140.064 356.707 139.359L333.293 146.84Z" fill="black"/>
<path d="M475.724 81.5974C493.624 72.1937 500.548 50.1159 491.188 32.2852C481.828 14.4545 459.73 7.62311 441.83 17.0268C423.93 26.4305 417.006 48.5083 426.366 66.339C435.726 84.1697 457.824 91.0011 475.724 81.5974Z" fill="black"/>
<path fill-rule="evenodd" clip-rule="evenodd" d="M452.928 33.0217C453.039 33.1248 453.126 33.2472 453.186 33.382C453.246 33.5168 453.276 33.6613 453.276 33.8072C453.276 33.9531 453.246 34.0976 453.186 34.2324C453.126 34.3671 453.039 34.4896 452.928 34.5926L439.536 47.1199L452.928 59.6471C453.151 59.8554 453.276 60.1379 453.276 60.4325C453.276 60.7271 453.151 61.0097 452.928 61.218C452.705 61.4263 452.403 61.5433 452.089 61.5433C451.774 61.5433 451.472 61.4263 451.249 61.218L437.019 47.9053C436.909 47.8023 436.821 47.6798 436.761 47.5451C436.702 47.4103 436.671 47.2658 436.671 47.1199C436.671 46.9739 436.702 46.8294 436.761 46.6947C436.821 46.5599 436.909 46.4375 437.019 46.3344L451.249 33.0217C451.359 32.9184 451.49 32.8364 451.634 32.7805C451.778 32.7246 451.933 32.6958 452.089 32.6958C452.245 32.6958 452.399 32.7246 452.543 32.7805C452.687 32.8364 452.818 32.9184 452.928 33.0217Z" fill="white"/>
<path fill-rule="evenodd" clip-rule="evenodd" d="M465.819 33.0217C465.922 32.9184 466.044 32.8364 466.179 32.7805C466.314 32.7246 466.458 32.6958 466.604 32.6958C466.75 32.6958 466.894 32.7246 467.029 32.7805C467.164 32.8364 467.286 32.9184 467.389 33.0217L480.697 46.3344C480.8 46.4375 480.882 46.5599 480.938 46.6947C480.994 46.8294 481.022 46.9739 481.022 47.1199C481.022 47.2658 480.994 47.4103 480.938 47.5451C480.882 47.6798 480.8 47.8023 480.697 47.9053L467.389 61.218C467.181 61.4263 466.899 61.5433 466.604 61.5433C466.31 61.5433 466.027 61.4263 465.819 61.218C465.611 61.0097 465.494 60.7271 465.494 60.4325C465.494 60.1379 465.611 59.8554 465.819 59.6471L478.343 47.1199L465.819 34.5926C465.716 34.4896 465.634 34.3671 465.578 34.2324C465.522 34.0976 465.493 33.9531 465.493 33.8072C465.493 33.6613 465.522 33.5168 465.578 33.382C465.634 33.2472 465.716 33.1248 465.819 33.0217Z" fill="white"/>
<rect width="2.10947" height="36.9581" transform="matrix(0.993327 0.115335 -0.104244 0.994552 459.367 29)" fill="white"/>
<path d="M577.273 83.5922C590.378 70.4826 590.378 49.2278 577.273 36.1182C564.169 23.0086 542.923 23.0086 529.818 36.1182C516.714 49.2278 516.714 70.4826 529.818 83.5922C542.923 96.7018 564.169 96.7018 577.273 83.5922Z" fill="#B9FF66"/>
<path d="M553.54 94.273C534.588 94.273 519.122 78.8396 519.122 59.8417C519.122 40.8829 534.549 25.4104 553.54 25.4104C572.53 25.4104 587.957 40.8438 587.957 59.8417C587.957 78.8004 572.53 94.273 553.54 94.273ZM553.54 27.1339C535.528 27.1339 520.845 41.7839 520.845 59.8417C520.845 77.8603 535.489 92.5495 553.54 92.5495C571.551 92.5495 586.234 77.8995 586.234 59.8417C586.234 41.823 571.59 27.1339 553.54 27.1339Z" fill="#B9FF66"/>
<path fill-rule="evenodd" clip-rule="evenodd" d="M548 41.7188C548 40.5004 548.474 39.332 549.318 38.4705C550.162 37.609 551.307 37.125 552.5 37.125H555.5C556.693 37.125 557.838 37.609 558.682 38.4705C559.526 39.332 560 40.5004 560 41.7188V44.7812C560 45.9996 559.526 47.168 558.682 48.0295C557.838 48.891 556.693 49.375 555.5 49.375V52.4375H572C572.398 52.4375 572.779 52.5988 573.061 52.886C573.342 53.1732 573.5 53.5626 573.5 53.9688V57.0312C573.5 57.4374 573.342 57.8268 573.061 58.114C572.779 58.4012 572.398 58.5625 572 58.5625C571.602 58.5625 571.221 58.4012 570.939 58.114C570.658 57.8268 570.5 57.4374 570.5 57.0312V55.5H555.5V57.0312C555.5 57.4374 555.342 57.8268 555.061 58.114C554.779 58.4012 554.398 58.5625 554 58.5625C553.602 58.5625 553.221 58.4012 552.939 58.114C552.658 57.8268 552.5 57.4374 552.5 57.0312V55.5H537.5V57.0312C537.5 57.4374 537.342 57.8268 537.061 58.114C536.779 58.4012 536.398 58.5625 536 58.5625C535.602 58.5625 535.221 58.4012 534.939 58.114C534.658 57.8268 534.5 57.4374 534.5 57.0312V53.9688C534.5 53.5626 534.658 53.1732 534.939 52.886C535.221 52.5988 535.602 52.4375 536 52.4375H552.5V49.375C551.307 49.375 550.162 48.891 549.318 48.0295C548.474 47.168 548 45.9996 548 44.7812V41.7188ZM530 66.2188C530 65.0004 530.474 63.832 531.318 62.9705C532.162 62.109 533.307 61.625 534.5 61.625H537.5C538.693 61.625 539.838 62.109 540.682 62.9705C541.526 63.832 542 65.0004 542 66.2188V69.2812C542 70.4996 541.526 71.668 540.682 72.5295C539.838 73.391 538.693 73.875 537.5 73.875H534.5C533.307 73.875 532.162 73.391 531.318 72.5295C530.474 71.668 530 70.4996 530 69.2812V66.2188ZM548 66.2188C548 65.0004 548.474 63.832 549.318 62.9705C550.162 62.109 551.307 61.625 552.5 61.625H555.5C556.693 61.625 557.838 62.109 558.682 62.9705C559.526 63.832 560 65.0004 560 66.2188V69.2812C560 70.4996 559.526 71.668 558.682 72.5295C557.838 73.391 556.693 73.875 555.5 73.875H552.5C551.307 73.875 550.162 73.391 549.318 72.5295C548.474 71.668 548 70.4996 548 69.2812V66.2188ZM566 66.2188C566 65.0004 566.474 63.832 567.318 62.9705C568.162 62.109 569.307 61.625 570.5 61.625H573.5C574.693 61.625 575.838 62.109 576.682 62.9705C577.526 63.832 578 65.0004 578 66.2188V69.2812C578 70.4996 577.526 71.668 576.682 72.5295C575.838 73.391 574.693 73.875 573.5 73.875H570.5C569.307 73.875 568.162 73.391 567.318 72.5295C566.474 71.668 566 70.4996 566 69.2812V66.2188Z" fill="black"/>
<path d="M563.068 189.993C578.434 179.322 582.295 158.283 571.691 142.999C561.086 127.715 540.033 123.975 524.666 134.645C509.3 145.315 505.439 166.355 516.043 181.639C526.648 196.923 547.701 200.663 563.068 189.993Z" fill="black"/>
<path d="M526.417 148.001C526.417 144.134 534.066 141 543.501 141C552.936 141 560.585 144.134 560.585 148.001V151.5C560.585 155.367 552.936 158.501 543.501 158.501C534.066 158.501 526.417 155.367 526.417 151.5V148.001Z" fill="white"/>
<path d="M526.417 157.627V165.502C526.417 169.363 534.066 172.5 543.501 172.5C552.936 172.5 560.585 169.366 560.585 165.499V157.627C559.431 158.478 558.176 159.175 556.849 159.7C553.264 161.17 548.542 162 543.501 162C538.463 162 533.741 161.168 530.156 159.7C528.829 159.175 527.574 158.478 526.42 157.627H526.417Z" fill="white"/>
<path d="M560.585 171.629C559.431 172.479 558.176 173.175 556.849 173.7C553.262 175.17 548.542 175.999 543.499 175.999C538.461 175.999 533.738 175.17 530.153 173.7C528.827 173.174 527.571 172.478 526.417 171.626V175.999C526.417 179.866 534.066 183 543.501 183C552.936 183 560.585 179.866 560.585 175.999V171.629Z" fill="white"/>
<path d="M543.536 299.581C562.513 290.34 570.453 267.553 561.272 248.686C552.091 229.819 529.265 222.016 510.288 231.257C491.312 240.499 483.372 263.286 492.553 282.153C501.734 301.02 524.56 308.823 543.536 299.581Z" fill="#B9FF66"/>
<path d="M526.719 304.347C522.647 304.347 518.496 303.72 514.463 302.349C504.596 299.059 496.608 292.165 491.988 282.842C487.368 273.558 486.663 263.021 489.991 253.15C496.882 232.821 519.044 221.735 539.444 228.512C549.311 231.802 557.299 238.696 561.919 248.019C566.54 257.302 567.244 267.839 563.916 277.71C558.356 294.006 543.046 304.347 526.719 304.347ZM527.11 228.277C511.487 228.277 496.843 238.148 491.557 253.738C488.386 263.178 489.051 273.245 493.476 282.098C497.9 290.989 505.536 297.609 514.972 300.743C534.471 307.206 555.654 296.63 562.232 277.201C565.404 267.761 564.738 257.694 560.314 248.841C555.889 239.95 548.254 233.33 538.818 230.196C534.941 228.864 530.987 228.277 527.11 228.277Z" fill="black"/>
<path fill-rule="evenodd" clip-rule="evenodd" d="M506 244H508.625V283.375H548V286H506V244ZM532.25 253.188C532.25 252.839 532.388 252.506 532.634 252.259C532.881 252.013 533.214 251.875 533.562 251.875H544.062C544.411 251.875 544.744 252.013 544.991 252.259C545.237 252.506 545.375 252.839 545.375 253.188V263.688C545.375 264.036 545.237 264.369 544.991 264.616C544.744 264.862 544.411 265 544.062 265C543.714 265 543.381 264.862 543.134 264.616C542.888 264.369 542.75 264.036 542.75 263.688V256.863L533.266 268.457C533.15 268.599 533.005 268.715 532.842 268.797C532.678 268.88 532.499 268.927 532.316 268.936C532.133 268.945 531.95 268.916 531.779 268.85C531.608 268.785 531.453 268.684 531.323 268.554L524.532 261.763L514.936 274.959C514.726 275.226 514.42 275.401 514.084 275.448C513.748 275.495 513.406 275.409 513.132 275.209C512.857 275.009 512.67 274.711 512.611 274.376C512.552 274.042 512.625 273.698 512.814 273.416L523.315 258.978C523.426 258.825 523.569 258.697 523.735 258.604C523.9 258.512 524.084 258.456 524.273 258.441C524.462 258.426 524.652 258.452 524.83 258.518C525.008 258.583 525.17 258.687 525.304 258.821L532.153 265.672L541.293 254.5H533.562C533.214 254.5 532.881 254.362 532.634 254.116C532.388 253.869 532.25 253.536 532.25 253.188Z" fill="black"/>
<defs>
<clipPath id="clip0_105_518">
<rect width="36" height="36" fill="white" transform="translate(293.537 427)"/>
</clipPath>
<clipPath id="clip1_105_518">
<rect width="70.3259" height="70.3259" fill="white" transform="translate(108.266 313) rotate(45)"/>
</clipPath>
</defs>
</svg>
